%TF.GenerationSoftware,KiCad,Pcbnew,(6.0.2)*%
%TF.CreationDate,2022-09-22T22:37:32-07:00*%
%TF.ProjectId,Rosco I2C,526f7363-6f20-4493-9243-2e6b69636164,rev?*%
%TF.SameCoordinates,Original*%
%TF.FileFunction,Legend,Top*%
%TF.FilePolarity,Positive*%
%FSLAX46Y46*%
G04 Gerber Fmt 4.6, Leading zero omitted, Abs format (unit mm)*
G04 Created by KiCad (PCBNEW (6.0.2)) date 2022-09-22 22:37:32*
%MOMM*%
%LPD*%
G01*
G04 APERTURE LIST*
%ADD10C,0.300000*%
%ADD11C,0.150000*%
%ADD12C,0.120000*%
G04 APERTURE END LIST*
D10*
X203600000Y-69085714D02*
X203600000Y-68371428D01*
X204028571Y-69228571D02*
X202528571Y-68728571D01*
X204028571Y-68228571D01*
X204028571Y-67085714D02*
X202528571Y-67085714D01*
X203957142Y-67085714D02*
X204028571Y-67228571D01*
X204028571Y-67514285D01*
X203957142Y-67657142D01*
X203885714Y-67728571D01*
X203742857Y-67800000D01*
X203314285Y-67800000D01*
X203171428Y-67728571D01*
X203100000Y-67657142D01*
X203028571Y-67514285D01*
X203028571Y-67228571D01*
X203100000Y-67085714D01*
X204028571Y-65728571D02*
X202528571Y-65728571D01*
X203957142Y-65728571D02*
X204028571Y-65871428D01*
X204028571Y-66157142D01*
X203957142Y-66300000D01*
X203885714Y-66371428D01*
X203742857Y-66442857D01*
X203314285Y-66442857D01*
X203171428Y-66371428D01*
X203100000Y-66300000D01*
X203028571Y-66157142D01*
X203028571Y-65871428D01*
X203100000Y-65728571D01*
X204028571Y-65014285D02*
X203028571Y-65014285D01*
X203314285Y-65014285D02*
X203171428Y-64942857D01*
X203100000Y-64871428D01*
X203028571Y-64728571D01*
X203028571Y-64585714D01*
X203957142Y-63514285D02*
X204028571Y-63657142D01*
X204028571Y-63942857D01*
X203957142Y-64085714D01*
X203814285Y-64157142D01*
X203242857Y-64157142D01*
X203100000Y-64085714D01*
X203028571Y-63942857D01*
X203028571Y-63657142D01*
X203100000Y-63514285D01*
X203242857Y-63442857D01*
X203385714Y-63442857D01*
X203528571Y-64157142D01*
X203957142Y-62871428D02*
X204028571Y-62728571D01*
X204028571Y-62442857D01*
X203957142Y-62300000D01*
X203814285Y-62228571D01*
X203742857Y-62228571D01*
X203600000Y-62300000D01*
X203528571Y-62442857D01*
X203528571Y-62657142D01*
X203457142Y-62800000D01*
X203314285Y-62871428D01*
X203242857Y-62871428D01*
X203100000Y-62800000D01*
X203028571Y-62657142D01*
X203028571Y-62442857D01*
X203100000Y-62300000D01*
X203957142Y-61657142D02*
X204028571Y-61514285D01*
X204028571Y-61228571D01*
X203957142Y-61085714D01*
X203814285Y-61014285D01*
X203742857Y-61014285D01*
X203600000Y-61085714D01*
X203528571Y-61228571D01*
X203528571Y-61442857D01*
X203457142Y-61585714D01*
X203314285Y-61657142D01*
X203242857Y-61657142D01*
X203100000Y-61585714D01*
X203028571Y-61442857D01*
X203028571Y-61228571D01*
X203100000Y-61085714D01*
X171792857Y-28750000D02*
X173221428Y-27750000D01*
X171792857Y-27035714D02*
X174792857Y-27035714D01*
X174792857Y-28178571D01*
X174650000Y-28464285D01*
X174507142Y-28607142D01*
X174221428Y-28750000D01*
X173792857Y-28750000D01*
X173507142Y-28607142D01*
X173364285Y-28464285D01*
X173221428Y-28178571D01*
X173221428Y-27035714D01*
X171792857Y-30464285D02*
X171935714Y-30178571D01*
X172078571Y-30035714D01*
X172364285Y-29892857D01*
X173221428Y-29892857D01*
X173507142Y-30035714D01*
X173650000Y-30178571D01*
X173792857Y-30464285D01*
X173792857Y-30892857D01*
X173650000Y-31178571D01*
X173507142Y-31321428D01*
X173221428Y-31464285D01*
X172364285Y-31464285D01*
X172078571Y-31321428D01*
X171935714Y-31178571D01*
X171792857Y-30892857D01*
X171792857Y-30464285D01*
X171935714Y-32607142D02*
X171792857Y-32892857D01*
X171792857Y-33464285D01*
X171935714Y-33750000D01*
X172221428Y-33892857D01*
X172364285Y-33892857D01*
X172650000Y-33750000D01*
X172792857Y-33464285D01*
X172792857Y-33035714D01*
X172935714Y-32750000D01*
X173221428Y-32607142D01*
X173364285Y-32607142D01*
X173650000Y-32750000D01*
X173792857Y-33035714D01*
X173792857Y-33464285D01*
X173650000Y-33750000D01*
X171935714Y-36464285D02*
X171792857Y-36178571D01*
X171792857Y-35607142D01*
X171935714Y-35321428D01*
X172078571Y-35178571D01*
X172364285Y-35035714D01*
X173221428Y-35035714D01*
X173507142Y-35178571D01*
X173650000Y-35321428D01*
X173792857Y-35607142D01*
X173792857Y-36178571D01*
X173650000Y-36464285D01*
X171792857Y-38178571D02*
X171935714Y-37892857D01*
X172078571Y-37750000D01*
X172364285Y-37607142D01*
X173221428Y-37607142D01*
X173507142Y-37750000D01*
X173650000Y-37892857D01*
X173792857Y-38178571D01*
X173792857Y-38607142D01*
X173650000Y-38892857D01*
X173507142Y-39035714D01*
X173221428Y-39178571D01*
X172364285Y-39178571D01*
X172078571Y-39035714D01*
X171935714Y-38892857D01*
X171792857Y-38607142D01*
X171792857Y-38178571D01*
X171792857Y-42750000D02*
X174792857Y-42750000D01*
X172650000Y-43750000D01*
X174792857Y-44750000D01*
X171792857Y-44750000D01*
X174792857Y-47464285D02*
X174792857Y-46892857D01*
X174650000Y-46607142D01*
X174507142Y-46464285D01*
X174078571Y-46178571D01*
X173507142Y-46035714D01*
X172364285Y-46035714D01*
X172078571Y-46178571D01*
X171935714Y-46321428D01*
X171792857Y-46607142D01*
X171792857Y-47178571D01*
X171935714Y-47464285D01*
X172078571Y-47607142D01*
X172364285Y-47750000D01*
X173078571Y-47750000D01*
X173364285Y-47607142D01*
X173507142Y-47464285D01*
X173650000Y-47178571D01*
X173650000Y-46607142D01*
X173507142Y-46321428D01*
X173364285Y-46178571D01*
X173078571Y-46035714D01*
X173507142Y-49464285D02*
X173650000Y-49178571D01*
X173792857Y-49035714D01*
X174078571Y-48892857D01*
X174221428Y-48892857D01*
X174507142Y-49035714D01*
X174650000Y-49178571D01*
X174792857Y-49464285D01*
X174792857Y-50035714D01*
X174650000Y-50321428D01*
X174507142Y-50464285D01*
X174221428Y-50607142D01*
X174078571Y-50607142D01*
X173792857Y-50464285D01*
X173650000Y-50321428D01*
X173507142Y-50035714D01*
X173507142Y-49464285D01*
X173364285Y-49178571D01*
X173221428Y-49035714D01*
X172935714Y-48892857D01*
X172364285Y-48892857D01*
X172078571Y-49035714D01*
X171935714Y-49178571D01*
X171792857Y-49464285D01*
X171792857Y-50035714D01*
X171935714Y-50321428D01*
X172078571Y-50464285D01*
X172364285Y-50607142D01*
X172935714Y-50607142D01*
X173221428Y-50464285D01*
X173364285Y-50321428D01*
X173507142Y-50035714D01*
X171792857Y-51892857D02*
X174792857Y-51892857D01*
X172935714Y-52178571D02*
X171792857Y-53035714D01*
X173792857Y-53035714D02*
X172650000Y-51892857D01*
X171792857Y-56607142D02*
X174792857Y-56607142D01*
X174507142Y-57892857D02*
X174650000Y-58035714D01*
X174792857Y-58321428D01*
X174792857Y-59035714D01*
X174650000Y-59321428D01*
X174507142Y-59464285D01*
X174221428Y-59607142D01*
X173935714Y-59607142D01*
X173507142Y-59464285D01*
X171792857Y-57750000D01*
X171792857Y-59607142D01*
X172078571Y-62607142D02*
X171935714Y-62464285D01*
X171792857Y-62035714D01*
X171792857Y-61750000D01*
X171935714Y-61321428D01*
X172221428Y-61035714D01*
X172507142Y-60892857D01*
X173078571Y-60750000D01*
X173507142Y-60750000D01*
X174078571Y-60892857D01*
X174364285Y-61035714D01*
X174650000Y-61321428D01*
X174792857Y-61750000D01*
X174792857Y-62035714D01*
X174650000Y-62464285D01*
X174507142Y-62607142D01*
X202800000Y-32121428D02*
X202728571Y-32264285D01*
X202728571Y-32478571D01*
X202800000Y-32692857D01*
X202942857Y-32835714D01*
X203085714Y-32907142D01*
X203371428Y-32978571D01*
X203585714Y-32978571D01*
X203871428Y-32907142D01*
X204014285Y-32835714D01*
X204157142Y-32692857D01*
X204228571Y-32478571D01*
X204228571Y-32335714D01*
X204157142Y-32121428D01*
X204085714Y-32050000D01*
X203585714Y-32050000D01*
X203585714Y-32335714D01*
X204228571Y-31192857D02*
X204157142Y-31335714D01*
X204014285Y-31407142D01*
X202728571Y-31407142D01*
X203228571Y-29978571D02*
X204228571Y-29978571D01*
X203228571Y-30621428D02*
X204014285Y-30621428D01*
X204157142Y-30550000D01*
X204228571Y-30407142D01*
X204228571Y-30192857D01*
X204157142Y-30050000D01*
X204085714Y-29978571D01*
X204157142Y-28692857D02*
X204228571Y-28835714D01*
X204228571Y-29121428D01*
X204157142Y-29264285D01*
X204014285Y-29335714D01*
X203442857Y-29335714D01*
X203300000Y-29264285D01*
X203228571Y-29121428D01*
X203228571Y-28835714D01*
X203300000Y-28692857D01*
X203442857Y-28621428D01*
X203585714Y-28621428D01*
X203728571Y-29335714D01*
D11*
%TO.C,C2*%
X178141333Y-35957142D02*
X178093714Y-36004761D01*
X177950857Y-36052380D01*
X177855619Y-36052380D01*
X177712761Y-36004761D01*
X177617523Y-35909523D01*
X177569904Y-35814285D01*
X177522285Y-35623809D01*
X177522285Y-35480952D01*
X177569904Y-35290476D01*
X177617523Y-35195238D01*
X177712761Y-35100000D01*
X177855619Y-35052380D01*
X177950857Y-35052380D01*
X178093714Y-35100000D01*
X178141333Y-35147619D01*
X178522285Y-35147619D02*
X178569904Y-35100000D01*
X178665142Y-35052380D01*
X178903238Y-35052380D01*
X178998476Y-35100000D01*
X179046095Y-35147619D01*
X179093714Y-35242857D01*
X179093714Y-35338095D01*
X179046095Y-35480952D01*
X178474666Y-36052380D01*
X179093714Y-36052380D01*
%TO.C,J4*%
X181541380Y-38438333D02*
X182255666Y-38438333D01*
X182398523Y-38485952D01*
X182493761Y-38581190D01*
X182541380Y-38724047D01*
X182541380Y-38819285D01*
X181874714Y-37533571D02*
X182541380Y-37533571D01*
X181493761Y-37771666D02*
X182208047Y-38009761D01*
X182208047Y-37390714D01*
X192233761Y-39128809D02*
X192281380Y-38985952D01*
X192281380Y-38747857D01*
X192233761Y-38652619D01*
X192186142Y-38605000D01*
X192090904Y-38557380D01*
X191995666Y-38557380D01*
X191900428Y-38605000D01*
X191852809Y-38652619D01*
X191805190Y-38747857D01*
X191757571Y-38938333D01*
X191709952Y-39033571D01*
X191662333Y-39081190D01*
X191567095Y-39128809D01*
X191471857Y-39128809D01*
X191376619Y-39081190D01*
X191329000Y-39033571D01*
X191281380Y-38938333D01*
X191281380Y-38700238D01*
X191329000Y-38557380D01*
X192281380Y-38128809D02*
X191281380Y-38128809D01*
X191281380Y-37747857D01*
X191329000Y-37652619D01*
X191376619Y-37605000D01*
X191471857Y-37557380D01*
X191614714Y-37557380D01*
X191709952Y-37605000D01*
X191757571Y-37652619D01*
X191805190Y-37747857D01*
X191805190Y-38128809D01*
X192281380Y-37128809D02*
X191281380Y-37128809D01*
%TO.C,C3*%
X203033333Y-85955142D02*
X202985714Y-86002761D01*
X202842857Y-86050380D01*
X202747619Y-86050380D01*
X202604761Y-86002761D01*
X202509523Y-85907523D01*
X202461904Y-85812285D01*
X202414285Y-85621809D01*
X202414285Y-85478952D01*
X202461904Y-85288476D01*
X202509523Y-85193238D01*
X202604761Y-85098000D01*
X202747619Y-85050380D01*
X202842857Y-85050380D01*
X202985714Y-85098000D01*
X203033333Y-85145619D01*
X203366666Y-85050380D02*
X203985714Y-85050380D01*
X203652380Y-85431333D01*
X203795238Y-85431333D01*
X203890476Y-85478952D01*
X203938095Y-85526571D01*
X203985714Y-85621809D01*
X203985714Y-85859904D01*
X203938095Y-85955142D01*
X203890476Y-86002761D01*
X203795238Y-86050380D01*
X203509523Y-86050380D01*
X203414285Y-86002761D01*
X203366666Y-85955142D01*
%TO.C,C12*%
X212253142Y-23776857D02*
X212300761Y-23824476D01*
X212348380Y-23967333D01*
X212348380Y-24062571D01*
X212300761Y-24205428D01*
X212205523Y-24300666D01*
X212110285Y-24348285D01*
X211919809Y-24395904D01*
X211776952Y-24395904D01*
X211586476Y-24348285D01*
X211491238Y-24300666D01*
X211396000Y-24205428D01*
X211348380Y-24062571D01*
X211348380Y-23967333D01*
X211396000Y-23824476D01*
X211443619Y-23776857D01*
X212348380Y-22824476D02*
X212348380Y-23395904D01*
X212348380Y-23110190D02*
X211348380Y-23110190D01*
X211491238Y-23205428D01*
X211586476Y-23300666D01*
X211634095Y-23395904D01*
X211443619Y-22443523D02*
X211396000Y-22395904D01*
X211348380Y-22300666D01*
X211348380Y-22062571D01*
X211396000Y-21967333D01*
X211443619Y-21919714D01*
X211538857Y-21872095D01*
X211634095Y-21872095D01*
X211776952Y-21919714D01*
X212348380Y-22491142D01*
X212348380Y-21872095D01*
%TO.C,C11*%
X220007142Y-117970857D02*
X220054761Y-118018476D01*
X220102380Y-118161333D01*
X220102380Y-118256571D01*
X220054761Y-118399428D01*
X219959523Y-118494666D01*
X219864285Y-118542285D01*
X219673809Y-118589904D01*
X219530952Y-118589904D01*
X219340476Y-118542285D01*
X219245238Y-118494666D01*
X219150000Y-118399428D01*
X219102380Y-118256571D01*
X219102380Y-118161333D01*
X219150000Y-118018476D01*
X219197619Y-117970857D01*
X220102380Y-117018476D02*
X220102380Y-117589904D01*
X220102380Y-117304190D02*
X219102380Y-117304190D01*
X219245238Y-117399428D01*
X219340476Y-117494666D01*
X219388095Y-117589904D01*
X220102380Y-116066095D02*
X220102380Y-116637523D01*
X220102380Y-116351809D02*
X219102380Y-116351809D01*
X219245238Y-116447047D01*
X219340476Y-116542285D01*
X219388095Y-116637523D01*
%TO.C,C5*%
X207605333Y-21439142D02*
X207557714Y-21486761D01*
X207414857Y-21534380D01*
X207319619Y-21534380D01*
X207176761Y-21486761D01*
X207081523Y-21391523D01*
X207033904Y-21296285D01*
X206986285Y-21105809D01*
X206986285Y-20962952D01*
X207033904Y-20772476D01*
X207081523Y-20677238D01*
X207176761Y-20582000D01*
X207319619Y-20534380D01*
X207414857Y-20534380D01*
X207557714Y-20582000D01*
X207605333Y-20629619D01*
X208510095Y-20534380D02*
X208033904Y-20534380D01*
X207986285Y-21010571D01*
X208033904Y-20962952D01*
X208129142Y-20915333D01*
X208367238Y-20915333D01*
X208462476Y-20962952D01*
X208510095Y-21010571D01*
X208557714Y-21105809D01*
X208557714Y-21343904D01*
X208510095Y-21439142D01*
X208462476Y-21486761D01*
X208367238Y-21534380D01*
X208129142Y-21534380D01*
X208033904Y-21486761D01*
X207986285Y-21439142D01*
%TO.C,U2*%
X202608095Y-89637380D02*
X202608095Y-90446904D01*
X202655714Y-90542142D01*
X202703333Y-90589761D01*
X202798571Y-90637380D01*
X202989047Y-90637380D01*
X203084285Y-90589761D01*
X203131904Y-90542142D01*
X203179523Y-90446904D01*
X203179523Y-89637380D01*
X203608095Y-89732619D02*
X203655714Y-89685000D01*
X203750952Y-89637380D01*
X203989047Y-89637380D01*
X204084285Y-89685000D01*
X204131904Y-89732619D01*
X204179523Y-89827857D01*
X204179523Y-89923095D01*
X204131904Y-90065952D01*
X203560476Y-90637380D01*
X204179523Y-90637380D01*
X200108095Y-117157380D02*
X200774761Y-117157380D01*
X200346190Y-118157380D01*
X201584285Y-117490714D02*
X201584285Y-118157380D01*
X201346190Y-117109761D02*
X201108095Y-117824047D01*
X201727142Y-117824047D01*
X202108095Y-118157380D02*
X202108095Y-117157380D01*
X202108095Y-117633571D02*
X202679523Y-117633571D01*
X202679523Y-118157380D02*
X202679523Y-117157380D01*
X203727142Y-118062142D02*
X203679523Y-118109761D01*
X203536666Y-118157380D01*
X203441428Y-118157380D01*
X203298571Y-118109761D01*
X203203333Y-118014523D01*
X203155714Y-117919285D01*
X203108095Y-117728809D01*
X203108095Y-117585952D01*
X203155714Y-117395476D01*
X203203333Y-117300238D01*
X203298571Y-117205000D01*
X203441428Y-117157380D01*
X203536666Y-117157380D01*
X203679523Y-117205000D01*
X203727142Y-117252619D01*
X204108095Y-117252619D02*
X204155714Y-117205000D01*
X204250952Y-117157380D01*
X204489047Y-117157380D01*
X204584285Y-117205000D01*
X204631904Y-117252619D01*
X204679523Y-117347857D01*
X204679523Y-117443095D01*
X204631904Y-117585952D01*
X204060476Y-118157380D01*
X204679523Y-118157380D01*
X205536666Y-117490714D02*
X205536666Y-118157380D01*
X205298571Y-117109761D02*
X205060476Y-117824047D01*
X205679523Y-117824047D01*
X206536666Y-117157380D02*
X206060476Y-117157380D01*
X206012857Y-117633571D01*
X206060476Y-117585952D01*
X206155714Y-117538333D01*
X206393809Y-117538333D01*
X206489047Y-117585952D01*
X206536666Y-117633571D01*
X206584285Y-117728809D01*
X206584285Y-117966904D01*
X206536666Y-118062142D01*
X206489047Y-118109761D01*
X206393809Y-118157380D01*
X206155714Y-118157380D01*
X206060476Y-118109761D01*
X206012857Y-118062142D01*
X202638095Y-108802380D02*
X202638095Y-109611904D01*
X202685714Y-109707142D01*
X202733333Y-109754761D01*
X202828571Y-109802380D01*
X203019047Y-109802380D01*
X203114285Y-109754761D01*
X203161904Y-109707142D01*
X203209523Y-109611904D01*
X203209523Y-108802380D01*
X203638095Y-108897619D02*
X203685714Y-108850000D01*
X203780952Y-108802380D01*
X204019047Y-108802380D01*
X204114285Y-108850000D01*
X204161904Y-108897619D01*
X204209523Y-108992857D01*
X204209523Y-109088095D01*
X204161904Y-109230952D01*
X203590476Y-109802380D01*
X204209523Y-109802380D01*
%TO.C,J3*%
X190016666Y-19522380D02*
X190016666Y-20236666D01*
X189969047Y-20379523D01*
X189873809Y-20474761D01*
X189730952Y-20522380D01*
X189635714Y-20522380D01*
X190397619Y-19522380D02*
X191016666Y-19522380D01*
X190683333Y-19903333D01*
X190826190Y-19903333D01*
X190921428Y-19950952D01*
X190969047Y-19998571D01*
X191016666Y-20093809D01*
X191016666Y-20331904D01*
X190969047Y-20427142D01*
X190921428Y-20474761D01*
X190826190Y-20522380D01*
X190540476Y-20522380D01*
X190445238Y-20474761D01*
X190397619Y-20427142D01*
X187652380Y-31319047D02*
X186652380Y-31319047D01*
X186747619Y-30890476D02*
X186700000Y-30842857D01*
X186652380Y-30747619D01*
X186652380Y-30509523D01*
X186700000Y-30414285D01*
X186747619Y-30366666D01*
X186842857Y-30319047D01*
X186938095Y-30319047D01*
X187080952Y-30366666D01*
X187652380Y-30938095D01*
X187652380Y-30319047D01*
X187557142Y-29319047D02*
X187604761Y-29366666D01*
X187652380Y-29509523D01*
X187652380Y-29604761D01*
X187604761Y-29747619D01*
X187509523Y-29842857D01*
X187414285Y-29890476D01*
X187223809Y-29938095D01*
X187080952Y-29938095D01*
X186890476Y-29890476D01*
X186795238Y-29842857D01*
X186700000Y-29747619D01*
X186652380Y-29604761D01*
X186652380Y-29509523D01*
X186700000Y-29366666D01*
X186747619Y-29319047D01*
X187557142Y-27557142D02*
X187604761Y-27604761D01*
X187652380Y-27747619D01*
X187652380Y-27842857D01*
X187604761Y-27985714D01*
X187509523Y-28080952D01*
X187414285Y-28128571D01*
X187223809Y-28176190D01*
X187080952Y-28176190D01*
X186890476Y-28128571D01*
X186795238Y-28080952D01*
X186700000Y-27985714D01*
X186652380Y-27842857D01*
X186652380Y-27747619D01*
X186700000Y-27604761D01*
X186747619Y-27557142D01*
X187652380Y-26985714D02*
X187604761Y-27080952D01*
X187557142Y-27128571D01*
X187461904Y-27176190D01*
X187176190Y-27176190D01*
X187080952Y-27128571D01*
X187033333Y-27080952D01*
X186985714Y-26985714D01*
X186985714Y-26842857D01*
X187033333Y-26747619D01*
X187080952Y-26700000D01*
X187176190Y-26652380D01*
X187461904Y-26652380D01*
X187557142Y-26700000D01*
X187604761Y-26747619D01*
X187652380Y-26842857D01*
X187652380Y-26985714D01*
X186985714Y-26223809D02*
X187652380Y-26223809D01*
X187080952Y-26223809D02*
X187033333Y-26176190D01*
X186985714Y-26080952D01*
X186985714Y-25938095D01*
X187033333Y-25842857D01*
X187128571Y-25795238D01*
X187652380Y-25795238D01*
X186985714Y-25319047D02*
X187652380Y-25319047D01*
X187080952Y-25319047D02*
X187033333Y-25271428D01*
X186985714Y-25176190D01*
X186985714Y-25033333D01*
X187033333Y-24938095D01*
X187128571Y-24890476D01*
X187652380Y-24890476D01*
X187604761Y-24033333D02*
X187652380Y-24128571D01*
X187652380Y-24319047D01*
X187604761Y-24414285D01*
X187509523Y-24461904D01*
X187128571Y-24461904D01*
X187033333Y-24414285D01*
X186985714Y-24319047D01*
X186985714Y-24128571D01*
X187033333Y-24033333D01*
X187128571Y-23985714D01*
X187223809Y-23985714D01*
X187319047Y-24461904D01*
X187604761Y-23128571D02*
X187652380Y-23223809D01*
X187652380Y-23414285D01*
X187604761Y-23509523D01*
X187557142Y-23557142D01*
X187461904Y-23604761D01*
X187176190Y-23604761D01*
X187080952Y-23557142D01*
X187033333Y-23509523D01*
X186985714Y-23414285D01*
X186985714Y-23223809D01*
X187033333Y-23128571D01*
X186985714Y-22842857D02*
X186985714Y-22461904D01*
X186652380Y-22700000D02*
X187509523Y-22700000D01*
X187604761Y-22652380D01*
X187652380Y-22557142D01*
X187652380Y-22461904D01*
X187652380Y-21985714D02*
X187604761Y-22080952D01*
X187557142Y-22128571D01*
X187461904Y-22176190D01*
X187176190Y-22176190D01*
X187080952Y-22128571D01*
X187033333Y-22080952D01*
X186985714Y-21985714D01*
X186985714Y-21842857D01*
X187033333Y-21747619D01*
X187080952Y-21700000D01*
X187176190Y-21652380D01*
X187461904Y-21652380D01*
X187557142Y-21700000D01*
X187604761Y-21747619D01*
X187652380Y-21842857D01*
X187652380Y-21985714D01*
X187652380Y-21223809D02*
X186985714Y-21223809D01*
X187176190Y-21223809D02*
X187080952Y-21176190D01*
X187033333Y-21128571D01*
X186985714Y-21033333D01*
X186985714Y-20938095D01*
%TO.C,C9*%
X184533333Y-20857142D02*
X184485714Y-20904761D01*
X184342857Y-20952380D01*
X184247619Y-20952380D01*
X184104761Y-20904761D01*
X184009523Y-20809523D01*
X183961904Y-20714285D01*
X183914285Y-20523809D01*
X183914285Y-20380952D01*
X183961904Y-20190476D01*
X184009523Y-20095238D01*
X184104761Y-20000000D01*
X184247619Y-19952380D01*
X184342857Y-19952380D01*
X184485714Y-20000000D01*
X184533333Y-20047619D01*
X185009523Y-20952380D02*
X185200000Y-20952380D01*
X185295238Y-20904761D01*
X185342857Y-20857142D01*
X185438095Y-20714285D01*
X185485714Y-20523809D01*
X185485714Y-20142857D01*
X185438095Y-20047619D01*
X185390476Y-20000000D01*
X185295238Y-19952380D01*
X185104761Y-19952380D01*
X185009523Y-20000000D01*
X184961904Y-20047619D01*
X184914285Y-20142857D01*
X184914285Y-20380952D01*
X184961904Y-20476190D01*
X185009523Y-20523809D01*
X185104761Y-20571428D01*
X185295238Y-20571428D01*
X185390476Y-20523809D01*
X185438095Y-20476190D01*
X185485714Y-20380952D01*
%TO.C,C4*%
X203287333Y-52228142D02*
X203239714Y-52275761D01*
X203096857Y-52323380D01*
X203001619Y-52323380D01*
X202858761Y-52275761D01*
X202763523Y-52180523D01*
X202715904Y-52085285D01*
X202668285Y-51894809D01*
X202668285Y-51751952D01*
X202715904Y-51561476D01*
X202763523Y-51466238D01*
X202858761Y-51371000D01*
X203001619Y-51323380D01*
X203096857Y-51323380D01*
X203239714Y-51371000D01*
X203287333Y-51418619D01*
X204144476Y-51656714D02*
X204144476Y-52323380D01*
X203906380Y-51275761D02*
X203668285Y-51990047D01*
X204287333Y-51990047D01*
%TO.C,U1*%
X186233095Y-43197380D02*
X186233095Y-44006904D01*
X186280714Y-44102142D01*
X186328333Y-44149761D01*
X186423571Y-44197380D01*
X186614047Y-44197380D01*
X186709285Y-44149761D01*
X186756904Y-44102142D01*
X186804523Y-44006904D01*
X186804523Y-43197380D01*
X187804523Y-44197380D02*
X187233095Y-44197380D01*
X187518809Y-44197380D02*
X187518809Y-43197380D01*
X187423571Y-43340238D01*
X187328333Y-43435476D01*
X187233095Y-43483095D01*
X181352142Y-96831666D02*
X181828333Y-96831666D01*
X181256904Y-97117380D02*
X181590238Y-96117380D01*
X181923571Y-97117380D01*
X182114047Y-96117380D02*
X182685476Y-96117380D01*
X182399761Y-97117380D02*
X182399761Y-96117380D01*
X183018809Y-97117380D02*
X183018809Y-96450714D01*
X183018809Y-96545952D02*
X183066428Y-96498333D01*
X183161666Y-96450714D01*
X183304523Y-96450714D01*
X183399761Y-96498333D01*
X183447380Y-96593571D01*
X183447380Y-97117380D01*
X183447380Y-96593571D02*
X183495000Y-96498333D01*
X183590238Y-96450714D01*
X183733095Y-96450714D01*
X183828333Y-96498333D01*
X183875952Y-96593571D01*
X183875952Y-97117380D01*
X184733095Y-97069761D02*
X184637857Y-97117380D01*
X184447380Y-97117380D01*
X184352142Y-97069761D01*
X184304523Y-96974523D01*
X184304523Y-96593571D01*
X184352142Y-96498333D01*
X184447380Y-96450714D01*
X184637857Y-96450714D01*
X184733095Y-96498333D01*
X184780714Y-96593571D01*
X184780714Y-96688809D01*
X184304523Y-96784047D01*
X185637857Y-96450714D02*
X185637857Y-97260238D01*
X185590238Y-97355476D01*
X185542619Y-97403095D01*
X185447380Y-97450714D01*
X185304523Y-97450714D01*
X185209285Y-97403095D01*
X185637857Y-97069761D02*
X185542619Y-97117380D01*
X185352142Y-97117380D01*
X185256904Y-97069761D01*
X185209285Y-97022142D01*
X185161666Y-96926904D01*
X185161666Y-96641190D01*
X185209285Y-96545952D01*
X185256904Y-96498333D01*
X185352142Y-96450714D01*
X185542619Y-96450714D01*
X185637857Y-96498333D01*
X186542619Y-97117380D02*
X186542619Y-96593571D01*
X186495000Y-96498333D01*
X186399761Y-96450714D01*
X186209285Y-96450714D01*
X186114047Y-96498333D01*
X186542619Y-97069761D02*
X186447380Y-97117380D01*
X186209285Y-97117380D01*
X186114047Y-97069761D01*
X186066428Y-96974523D01*
X186066428Y-96879285D01*
X186114047Y-96784047D01*
X186209285Y-96736428D01*
X186447380Y-96736428D01*
X186542619Y-96688809D01*
X187542619Y-97117380D02*
X186971190Y-97117380D01*
X187256904Y-97117380D02*
X187256904Y-96117380D01*
X187161666Y-96260238D01*
X187066428Y-96355476D01*
X186971190Y-96403095D01*
X187923571Y-96212619D02*
X187971190Y-96165000D01*
X188066428Y-96117380D01*
X188304523Y-96117380D01*
X188399761Y-96165000D01*
X188447380Y-96212619D01*
X188495000Y-96307857D01*
X188495000Y-96403095D01*
X188447380Y-96545952D01*
X187875952Y-97117380D01*
X188495000Y-97117380D01*
X189066428Y-96545952D02*
X188971190Y-96498333D01*
X188923571Y-96450714D01*
X188875952Y-96355476D01*
X188875952Y-96307857D01*
X188923571Y-96212619D01*
X188971190Y-96165000D01*
X189066428Y-96117380D01*
X189256904Y-96117380D01*
X189352142Y-96165000D01*
X189399761Y-96212619D01*
X189447380Y-96307857D01*
X189447380Y-96355476D01*
X189399761Y-96450714D01*
X189352142Y-96498333D01*
X189256904Y-96545952D01*
X189066428Y-96545952D01*
X188971190Y-96593571D01*
X188923571Y-96641190D01*
X188875952Y-96736428D01*
X188875952Y-96926904D01*
X188923571Y-97022142D01*
X188971190Y-97069761D01*
X189066428Y-97117380D01*
X189256904Y-97117380D01*
X189352142Y-97069761D01*
X189399761Y-97022142D01*
X189447380Y-96926904D01*
X189447380Y-96736428D01*
X189399761Y-96641190D01*
X189352142Y-96593571D01*
X189256904Y-96545952D01*
X190304523Y-96450714D02*
X190304523Y-97117380D01*
X190066428Y-96069761D02*
X189828333Y-96784047D01*
X190447380Y-96784047D01*
X190828333Y-96736428D02*
X191590238Y-96736428D01*
X192066428Y-97117380D02*
X192066428Y-96117380D01*
X192447380Y-96117380D01*
X192542619Y-96165000D01*
X192590238Y-96212619D01*
X192637857Y-96307857D01*
X192637857Y-96450714D01*
X192590238Y-96545952D01*
X192542619Y-96593571D01*
X192447380Y-96641190D01*
X192066428Y-96641190D01*
%TO.C,C8*%
X194283333Y-20907142D02*
X194235714Y-20954761D01*
X194092857Y-21002380D01*
X193997619Y-21002380D01*
X193854761Y-20954761D01*
X193759523Y-20859523D01*
X193711904Y-20764285D01*
X193664285Y-20573809D01*
X193664285Y-20430952D01*
X193711904Y-20240476D01*
X193759523Y-20145238D01*
X193854761Y-20050000D01*
X193997619Y-20002380D01*
X194092857Y-20002380D01*
X194235714Y-20050000D01*
X194283333Y-20097619D01*
X194854761Y-20430952D02*
X194759523Y-20383333D01*
X194711904Y-20335714D01*
X194664285Y-20240476D01*
X194664285Y-20192857D01*
X194711904Y-20097619D01*
X194759523Y-20050000D01*
X194854761Y-20002380D01*
X195045238Y-20002380D01*
X195140476Y-20050000D01*
X195188095Y-20097619D01*
X195235714Y-20192857D01*
X195235714Y-20240476D01*
X195188095Y-20335714D01*
X195140476Y-20383333D01*
X195045238Y-20430952D01*
X194854761Y-20430952D01*
X194759523Y-20478571D01*
X194711904Y-20526190D01*
X194664285Y-20621428D01*
X194664285Y-20811904D01*
X194711904Y-20907142D01*
X194759523Y-20954761D01*
X194854761Y-21002380D01*
X195045238Y-21002380D01*
X195140476Y-20954761D01*
X195188095Y-20907142D01*
X195235714Y-20811904D01*
X195235714Y-20621428D01*
X195188095Y-20526190D01*
X195140476Y-20478571D01*
X195045238Y-20430952D01*
%TO.C,U4*%
X199938095Y-22252380D02*
X199938095Y-23061904D01*
X199985714Y-23157142D01*
X200033333Y-23204761D01*
X200128571Y-23252380D01*
X200319047Y-23252380D01*
X200414285Y-23204761D01*
X200461904Y-23157142D01*
X200509523Y-23061904D01*
X200509523Y-22252380D01*
X201414285Y-22585714D02*
X201414285Y-23252380D01*
X201176190Y-22204761D02*
X200938095Y-22919047D01*
X201557142Y-22919047D01*
X200931428Y-49890000D02*
X200836190Y-49842380D01*
X200693333Y-49842380D01*
X200550476Y-49890000D01*
X200455238Y-49985238D01*
X200407619Y-50080476D01*
X200360000Y-50270952D01*
X200360000Y-50413809D01*
X200407619Y-50604285D01*
X200455238Y-50699523D01*
X200550476Y-50794761D01*
X200693333Y-50842380D01*
X200788571Y-50842380D01*
X200931428Y-50794761D01*
X200979047Y-50747142D01*
X200979047Y-50413809D01*
X200788571Y-50413809D01*
X201360000Y-50556666D02*
X201836190Y-50556666D01*
X201264761Y-50842380D02*
X201598095Y-49842380D01*
X201931428Y-50842380D01*
X202740952Y-50842380D02*
X202264761Y-50842380D01*
X202264761Y-49842380D01*
X203598095Y-50842380D02*
X203026666Y-50842380D01*
X203312380Y-50842380D02*
X203312380Y-49842380D01*
X203217142Y-49985238D01*
X203121904Y-50080476D01*
X203026666Y-50128095D01*
X204455238Y-49842380D02*
X204264761Y-49842380D01*
X204169523Y-49890000D01*
X204121904Y-49937619D01*
X204026666Y-50080476D01*
X203979047Y-50270952D01*
X203979047Y-50651904D01*
X204026666Y-50747142D01*
X204074285Y-50794761D01*
X204169523Y-50842380D01*
X204360000Y-50842380D01*
X204455238Y-50794761D01*
X204502857Y-50747142D01*
X204550476Y-50651904D01*
X204550476Y-50413809D01*
X204502857Y-50318571D01*
X204455238Y-50270952D01*
X204360000Y-50223333D01*
X204169523Y-50223333D01*
X204074285Y-50270952D01*
X204026666Y-50318571D01*
X203979047Y-50413809D01*
X204836190Y-49842380D02*
X205169523Y-50842380D01*
X205502857Y-49842380D01*
X205979047Y-50270952D02*
X205883809Y-50223333D01*
X205836190Y-50175714D01*
X205788571Y-50080476D01*
X205788571Y-50032857D01*
X205836190Y-49937619D01*
X205883809Y-49890000D01*
X205979047Y-49842380D01*
X206169523Y-49842380D01*
X206264761Y-49890000D01*
X206312380Y-49937619D01*
X206360000Y-50032857D01*
X206360000Y-50080476D01*
X206312380Y-50175714D01*
X206264761Y-50223333D01*
X206169523Y-50270952D01*
X205979047Y-50270952D01*
X205883809Y-50318571D01*
X205836190Y-50366190D01*
X205788571Y-50461428D01*
X205788571Y-50651904D01*
X205836190Y-50747142D01*
X205883809Y-50794761D01*
X205979047Y-50842380D01*
X206169523Y-50842380D01*
X206264761Y-50794761D01*
X206312380Y-50747142D01*
X206360000Y-50651904D01*
X206360000Y-50461428D01*
X206312380Y-50366190D01*
X206264761Y-50318571D01*
X206169523Y-50270952D01*
X202588095Y-41652380D02*
X202588095Y-42461904D01*
X202635714Y-42557142D01*
X202683333Y-42604761D01*
X202778571Y-42652380D01*
X202969047Y-42652380D01*
X203064285Y-42604761D01*
X203111904Y-42557142D01*
X203159523Y-42461904D01*
X203159523Y-41652380D01*
X204064285Y-41985714D02*
X204064285Y-42652380D01*
X203826190Y-41604761D02*
X203588095Y-42319047D01*
X204207142Y-42319047D01*
%TO.C,C1*%
X186597142Y-107558666D02*
X186644761Y-107606285D01*
X186692380Y-107749142D01*
X186692380Y-107844380D01*
X186644761Y-107987238D01*
X186549523Y-108082476D01*
X186454285Y-108130095D01*
X186263809Y-108177714D01*
X186120952Y-108177714D01*
X185930476Y-108130095D01*
X185835238Y-108082476D01*
X185740000Y-107987238D01*
X185692380Y-107844380D01*
X185692380Y-107749142D01*
X185740000Y-107606285D01*
X185787619Y-107558666D01*
X186692380Y-106606285D02*
X186692380Y-107177714D01*
X186692380Y-106892000D02*
X185692380Y-106892000D01*
X185835238Y-106987238D01*
X185930476Y-107082476D01*
X185978095Y-107177714D01*
%TO.C,J1*%
X180366666Y-19522380D02*
X180366666Y-20236666D01*
X180319047Y-20379523D01*
X180223809Y-20474761D01*
X180080952Y-20522380D01*
X179985714Y-20522380D01*
X181366666Y-20522380D02*
X180795238Y-20522380D01*
X181080952Y-20522380D02*
X181080952Y-19522380D01*
X180985714Y-19665238D01*
X180890476Y-19760476D01*
X180795238Y-19808095D01*
X178002380Y-31319047D02*
X177002380Y-31319047D01*
X177097619Y-30890476D02*
X177050000Y-30842857D01*
X177002380Y-30747619D01*
X177002380Y-30509523D01*
X177050000Y-30414285D01*
X177097619Y-30366666D01*
X177192857Y-30319047D01*
X177288095Y-30319047D01*
X177430952Y-30366666D01*
X178002380Y-30938095D01*
X178002380Y-30319047D01*
X177907142Y-29319047D02*
X177954761Y-29366666D01*
X178002380Y-29509523D01*
X178002380Y-29604761D01*
X177954761Y-29747619D01*
X177859523Y-29842857D01*
X177764285Y-29890476D01*
X177573809Y-29938095D01*
X177430952Y-29938095D01*
X177240476Y-29890476D01*
X177145238Y-29842857D01*
X177050000Y-29747619D01*
X177002380Y-29604761D01*
X177002380Y-29509523D01*
X177050000Y-29366666D01*
X177097619Y-29319047D01*
X177907142Y-27557142D02*
X177954761Y-27604761D01*
X178002380Y-27747619D01*
X178002380Y-27842857D01*
X177954761Y-27985714D01*
X177859523Y-28080952D01*
X177764285Y-28128571D01*
X177573809Y-28176190D01*
X177430952Y-28176190D01*
X177240476Y-28128571D01*
X177145238Y-28080952D01*
X177050000Y-27985714D01*
X177002380Y-27842857D01*
X177002380Y-27747619D01*
X177050000Y-27604761D01*
X177097619Y-27557142D01*
X178002380Y-26985714D02*
X177954761Y-27080952D01*
X177907142Y-27128571D01*
X177811904Y-27176190D01*
X177526190Y-27176190D01*
X177430952Y-27128571D01*
X177383333Y-27080952D01*
X177335714Y-26985714D01*
X177335714Y-26842857D01*
X177383333Y-26747619D01*
X177430952Y-26700000D01*
X177526190Y-26652380D01*
X177811904Y-26652380D01*
X177907142Y-26700000D01*
X177954761Y-26747619D01*
X178002380Y-26842857D01*
X178002380Y-26985714D01*
X177335714Y-26223809D02*
X178002380Y-26223809D01*
X177430952Y-26223809D02*
X177383333Y-26176190D01*
X177335714Y-26080952D01*
X177335714Y-25938095D01*
X177383333Y-25842857D01*
X177478571Y-25795238D01*
X178002380Y-25795238D01*
X177335714Y-25319047D02*
X178002380Y-25319047D01*
X177430952Y-25319047D02*
X177383333Y-25271428D01*
X177335714Y-25176190D01*
X177335714Y-25033333D01*
X177383333Y-24938095D01*
X177478571Y-24890476D01*
X178002380Y-24890476D01*
X177954761Y-24033333D02*
X178002380Y-24128571D01*
X178002380Y-24319047D01*
X177954761Y-24414285D01*
X177859523Y-24461904D01*
X177478571Y-24461904D01*
X177383333Y-24414285D01*
X177335714Y-24319047D01*
X177335714Y-24128571D01*
X177383333Y-24033333D01*
X177478571Y-23985714D01*
X177573809Y-23985714D01*
X177669047Y-24461904D01*
X177954761Y-23128571D02*
X178002380Y-23223809D01*
X178002380Y-23414285D01*
X177954761Y-23509523D01*
X177907142Y-23557142D01*
X177811904Y-23604761D01*
X177526190Y-23604761D01*
X177430952Y-23557142D01*
X177383333Y-23509523D01*
X177335714Y-23414285D01*
X177335714Y-23223809D01*
X177383333Y-23128571D01*
X177335714Y-22842857D02*
X177335714Y-22461904D01*
X177002380Y-22700000D02*
X177859523Y-22700000D01*
X177954761Y-22652380D01*
X178002380Y-22557142D01*
X178002380Y-22461904D01*
X178002380Y-21985714D02*
X177954761Y-22080952D01*
X177907142Y-22128571D01*
X177811904Y-22176190D01*
X177526190Y-22176190D01*
X177430952Y-22128571D01*
X177383333Y-22080952D01*
X177335714Y-21985714D01*
X177335714Y-21842857D01*
X177383333Y-21747619D01*
X177430952Y-21700000D01*
X177526190Y-21652380D01*
X177811904Y-21652380D01*
X177907142Y-21700000D01*
X177954761Y-21747619D01*
X178002380Y-21842857D01*
X178002380Y-21985714D01*
X178002380Y-21223809D02*
X177335714Y-21223809D01*
X177526190Y-21223809D02*
X177430952Y-21176190D01*
X177383333Y-21128571D01*
X177335714Y-21033333D01*
X177335714Y-20938095D01*
%TO.C,U3*%
X202598095Y-55979880D02*
X202598095Y-56789404D01*
X202645714Y-56884642D01*
X202693333Y-56932261D01*
X202788571Y-56979880D01*
X202979047Y-56979880D01*
X203074285Y-56932261D01*
X203121904Y-56884642D01*
X203169523Y-56789404D01*
X203169523Y-55979880D01*
X203550476Y-55979880D02*
X204169523Y-55979880D01*
X203836190Y-56360833D01*
X203979047Y-56360833D01*
X204074285Y-56408452D01*
X204121904Y-56456071D01*
X204169523Y-56551309D01*
X204169523Y-56789404D01*
X204121904Y-56884642D01*
X204074285Y-56932261D01*
X203979047Y-56979880D01*
X203693333Y-56979880D01*
X203598095Y-56932261D01*
X203550476Y-56884642D01*
X200931428Y-83547500D02*
X200836190Y-83499880D01*
X200693333Y-83499880D01*
X200550476Y-83547500D01*
X200455238Y-83642738D01*
X200407619Y-83737976D01*
X200360000Y-83928452D01*
X200360000Y-84071309D01*
X200407619Y-84261785D01*
X200455238Y-84357023D01*
X200550476Y-84452261D01*
X200693333Y-84499880D01*
X200788571Y-84499880D01*
X200931428Y-84452261D01*
X200979047Y-84404642D01*
X200979047Y-84071309D01*
X200788571Y-84071309D01*
X201360000Y-84214166D02*
X201836190Y-84214166D01*
X201264761Y-84499880D02*
X201598095Y-83499880D01*
X201931428Y-84499880D01*
X202740952Y-84499880D02*
X202264761Y-84499880D01*
X202264761Y-83499880D01*
X203598095Y-84499880D02*
X203026666Y-84499880D01*
X203312380Y-84499880D02*
X203312380Y-83499880D01*
X203217142Y-83642738D01*
X203121904Y-83737976D01*
X203026666Y-83785595D01*
X204455238Y-83499880D02*
X204264761Y-83499880D01*
X204169523Y-83547500D01*
X204121904Y-83595119D01*
X204026666Y-83737976D01*
X203979047Y-83928452D01*
X203979047Y-84309404D01*
X204026666Y-84404642D01*
X204074285Y-84452261D01*
X204169523Y-84499880D01*
X204360000Y-84499880D01*
X204455238Y-84452261D01*
X204502857Y-84404642D01*
X204550476Y-84309404D01*
X204550476Y-84071309D01*
X204502857Y-83976071D01*
X204455238Y-83928452D01*
X204360000Y-83880833D01*
X204169523Y-83880833D01*
X204074285Y-83928452D01*
X204026666Y-83976071D01*
X203979047Y-84071309D01*
X204836190Y-83499880D02*
X205169523Y-84499880D01*
X205502857Y-83499880D01*
X205979047Y-83928452D02*
X205883809Y-83880833D01*
X205836190Y-83833214D01*
X205788571Y-83737976D01*
X205788571Y-83690357D01*
X205836190Y-83595119D01*
X205883809Y-83547500D01*
X205979047Y-83499880D01*
X206169523Y-83499880D01*
X206264761Y-83547500D01*
X206312380Y-83595119D01*
X206360000Y-83690357D01*
X206360000Y-83737976D01*
X206312380Y-83833214D01*
X206264761Y-83880833D01*
X206169523Y-83928452D01*
X205979047Y-83928452D01*
X205883809Y-83976071D01*
X205836190Y-84023690D01*
X205788571Y-84118928D01*
X205788571Y-84309404D01*
X205836190Y-84404642D01*
X205883809Y-84452261D01*
X205979047Y-84499880D01*
X206169523Y-84499880D01*
X206264761Y-84452261D01*
X206312380Y-84404642D01*
X206360000Y-84309404D01*
X206360000Y-84118928D01*
X206312380Y-84023690D01*
X206264761Y-83976071D01*
X206169523Y-83928452D01*
X202488095Y-75302380D02*
X202488095Y-76111904D01*
X202535714Y-76207142D01*
X202583333Y-76254761D01*
X202678571Y-76302380D01*
X202869047Y-76302380D01*
X202964285Y-76254761D01*
X203011904Y-76207142D01*
X203059523Y-76111904D01*
X203059523Y-75302380D01*
X203440476Y-75302380D02*
X204059523Y-75302380D01*
X203726190Y-75683333D01*
X203869047Y-75683333D01*
X203964285Y-75730952D01*
X204011904Y-75778571D01*
X204059523Y-75873809D01*
X204059523Y-76111904D01*
X204011904Y-76207142D01*
X203964285Y-76254761D01*
X203869047Y-76302380D01*
X203583333Y-76302380D01*
X203488095Y-76254761D01*
X203440476Y-76207142D01*
%TO.C,C6*%
X181517142Y-107558666D02*
X181564761Y-107606285D01*
X181612380Y-107749142D01*
X181612380Y-107844380D01*
X181564761Y-107987238D01*
X181469523Y-108082476D01*
X181374285Y-108130095D01*
X181183809Y-108177714D01*
X181040952Y-108177714D01*
X180850476Y-108130095D01*
X180755238Y-108082476D01*
X180660000Y-107987238D01*
X180612380Y-107844380D01*
X180612380Y-107749142D01*
X180660000Y-107606285D01*
X180707619Y-107558666D01*
X180612380Y-106701523D02*
X180612380Y-106892000D01*
X180660000Y-106987238D01*
X180707619Y-107034857D01*
X180850476Y-107130095D01*
X181040952Y-107177714D01*
X181421904Y-107177714D01*
X181517142Y-107130095D01*
X181564761Y-107082476D01*
X181612380Y-106987238D01*
X181612380Y-106796761D01*
X181564761Y-106701523D01*
X181517142Y-106653904D01*
X181421904Y-106606285D01*
X181183809Y-106606285D01*
X181088571Y-106653904D01*
X181040952Y-106701523D01*
X180993333Y-106796761D01*
X180993333Y-106987238D01*
X181040952Y-107082476D01*
X181088571Y-107130095D01*
X181183809Y-107177714D01*
%TO.C,C7*%
X176133333Y-67457142D02*
X176085714Y-67504761D01*
X175942857Y-67552380D01*
X175847619Y-67552380D01*
X175704761Y-67504761D01*
X175609523Y-67409523D01*
X175561904Y-67314285D01*
X175514285Y-67123809D01*
X175514285Y-66980952D01*
X175561904Y-66790476D01*
X175609523Y-66695238D01*
X175704761Y-66600000D01*
X175847619Y-66552380D01*
X175942857Y-66552380D01*
X176085714Y-66600000D01*
X176133333Y-66647619D01*
X176466666Y-66552380D02*
X177133333Y-66552380D01*
X176704761Y-67552380D01*
%TO.C,J2*%
X215566666Y-27852380D02*
X215566666Y-28566666D01*
X215519047Y-28709523D01*
X215423809Y-28804761D01*
X215280952Y-28852380D01*
X215185714Y-28852380D01*
X215995238Y-27947619D02*
X216042857Y-27900000D01*
X216138095Y-27852380D01*
X216376190Y-27852380D01*
X216471428Y-27900000D01*
X216519047Y-27947619D01*
X216566666Y-28042857D01*
X216566666Y-28138095D01*
X216519047Y-28280952D01*
X215947619Y-28852380D01*
X216566666Y-28852380D01*
X220302380Y-78080952D02*
X219826190Y-78414285D01*
X220302380Y-78652380D02*
X219302380Y-78652380D01*
X219302380Y-78271428D01*
X219350000Y-78176190D01*
X219397619Y-78128571D01*
X219492857Y-78080952D01*
X219635714Y-78080952D01*
X219730952Y-78128571D01*
X219778571Y-78176190D01*
X219826190Y-78271428D01*
X219826190Y-78652380D01*
X220302380Y-77509523D02*
X220254761Y-77604761D01*
X220207142Y-77652380D01*
X220111904Y-77700000D01*
X219826190Y-77700000D01*
X219730952Y-77652380D01*
X219683333Y-77604761D01*
X219635714Y-77509523D01*
X219635714Y-77366666D01*
X219683333Y-77271428D01*
X219730952Y-77223809D01*
X219826190Y-77176190D01*
X220111904Y-77176190D01*
X220207142Y-77223809D01*
X220254761Y-77271428D01*
X220302380Y-77366666D01*
X220302380Y-77509523D01*
X220254761Y-76795238D02*
X220302380Y-76700000D01*
X220302380Y-76509523D01*
X220254761Y-76414285D01*
X220159523Y-76366666D01*
X220111904Y-76366666D01*
X220016666Y-76414285D01*
X219969047Y-76509523D01*
X219969047Y-76652380D01*
X219921428Y-76747619D01*
X219826190Y-76795238D01*
X219778571Y-76795238D01*
X219683333Y-76747619D01*
X219635714Y-76652380D01*
X219635714Y-76509523D01*
X219683333Y-76414285D01*
X220254761Y-75509523D02*
X220302380Y-75604761D01*
X220302380Y-75795238D01*
X220254761Y-75890476D01*
X220207142Y-75938095D01*
X220111904Y-75985714D01*
X219826190Y-75985714D01*
X219730952Y-75938095D01*
X219683333Y-75890476D01*
X219635714Y-75795238D01*
X219635714Y-75604761D01*
X219683333Y-75509523D01*
X220302380Y-74938095D02*
X220254761Y-75033333D01*
X220207142Y-75080952D01*
X220111904Y-75128571D01*
X219826190Y-75128571D01*
X219730952Y-75080952D01*
X219683333Y-75033333D01*
X219635714Y-74938095D01*
X219635714Y-74795238D01*
X219683333Y-74700000D01*
X219730952Y-74652380D01*
X219826190Y-74604761D01*
X220111904Y-74604761D01*
X220207142Y-74652380D01*
X220254761Y-74700000D01*
X220302380Y-74795238D01*
X220302380Y-74938095D01*
X220302380Y-73414285D02*
X219302380Y-73414285D01*
X220016666Y-73080952D01*
X219302380Y-72747619D01*
X220302380Y-72747619D01*
X219302380Y-71842857D02*
X219302380Y-72033333D01*
X219350000Y-72128571D01*
X219397619Y-72176190D01*
X219540476Y-72271428D01*
X219730952Y-72319047D01*
X220111904Y-72319047D01*
X220207142Y-72271428D01*
X220254761Y-72223809D01*
X220302380Y-72128571D01*
X220302380Y-71938095D01*
X220254761Y-71842857D01*
X220207142Y-71795238D01*
X220111904Y-71747619D01*
X219873809Y-71747619D01*
X219778571Y-71795238D01*
X219730952Y-71842857D01*
X219683333Y-71938095D01*
X219683333Y-72128571D01*
X219730952Y-72223809D01*
X219778571Y-72271428D01*
X219873809Y-72319047D01*
X219730952Y-71176190D02*
X219683333Y-71271428D01*
X219635714Y-71319047D01*
X219540476Y-71366666D01*
X219492857Y-71366666D01*
X219397619Y-71319047D01*
X219350000Y-71271428D01*
X219302380Y-71176190D01*
X219302380Y-70985714D01*
X219350000Y-70890476D01*
X219397619Y-70842857D01*
X219492857Y-70795238D01*
X219540476Y-70795238D01*
X219635714Y-70842857D01*
X219683333Y-70890476D01*
X219730952Y-70985714D01*
X219730952Y-71176190D01*
X219778571Y-71271428D01*
X219826190Y-71319047D01*
X219921428Y-71366666D01*
X220111904Y-71366666D01*
X220207142Y-71319047D01*
X220254761Y-71271428D01*
X220302380Y-71176190D01*
X220302380Y-70985714D01*
X220254761Y-70890476D01*
X220207142Y-70842857D01*
X220111904Y-70795238D01*
X219921428Y-70795238D01*
X219826190Y-70842857D01*
X219778571Y-70890476D01*
X219730952Y-70985714D01*
X220302380Y-70366666D02*
X219302380Y-70366666D01*
X219921428Y-70271428D02*
X220302380Y-69985714D01*
X219635714Y-69985714D02*
X220016666Y-70366666D01*
X220207142Y-68223809D02*
X220254761Y-68271428D01*
X220302380Y-68414285D01*
X220302380Y-68509523D01*
X220254761Y-68652380D01*
X220159523Y-68747619D01*
X220064285Y-68795238D01*
X219873809Y-68842857D01*
X219730952Y-68842857D01*
X219540476Y-68795238D01*
X219445238Y-68747619D01*
X219350000Y-68652380D01*
X219302380Y-68509523D01*
X219302380Y-68414285D01*
X219350000Y-68271428D01*
X219397619Y-68223809D01*
X220302380Y-67652380D02*
X220254761Y-67747619D01*
X220207142Y-67795238D01*
X220111904Y-67842857D01*
X219826190Y-67842857D01*
X219730952Y-67795238D01*
X219683333Y-67747619D01*
X219635714Y-67652380D01*
X219635714Y-67509523D01*
X219683333Y-67414285D01*
X219730952Y-67366666D01*
X219826190Y-67319047D01*
X220111904Y-67319047D01*
X220207142Y-67366666D01*
X220254761Y-67414285D01*
X220302380Y-67509523D01*
X220302380Y-67652380D01*
X219635714Y-66890476D02*
X220302380Y-66890476D01*
X219730952Y-66890476D02*
X219683333Y-66842857D01*
X219635714Y-66747619D01*
X219635714Y-66604761D01*
X219683333Y-66509523D01*
X219778571Y-66461904D01*
X220302380Y-66461904D01*
X219635714Y-65985714D02*
X220302380Y-65985714D01*
X219730952Y-65985714D02*
X219683333Y-65938095D01*
X219635714Y-65842857D01*
X219635714Y-65700000D01*
X219683333Y-65604761D01*
X219778571Y-65557142D01*
X220302380Y-65557142D01*
X220254761Y-64700000D02*
X220302380Y-64795238D01*
X220302380Y-64985714D01*
X220254761Y-65080952D01*
X220159523Y-65128571D01*
X219778571Y-65128571D01*
X219683333Y-65080952D01*
X219635714Y-64985714D01*
X219635714Y-64795238D01*
X219683333Y-64700000D01*
X219778571Y-64652380D01*
X219873809Y-64652380D01*
X219969047Y-65128571D01*
X220254761Y-63795238D02*
X220302380Y-63890476D01*
X220302380Y-64080952D01*
X220254761Y-64176190D01*
X220207142Y-64223809D01*
X220111904Y-64271428D01*
X219826190Y-64271428D01*
X219730952Y-64223809D01*
X219683333Y-64176190D01*
X219635714Y-64080952D01*
X219635714Y-63890476D01*
X219683333Y-63795238D01*
X219635714Y-63509523D02*
X219635714Y-63128571D01*
X219302380Y-63366666D02*
X220159523Y-63366666D01*
X220254761Y-63319047D01*
X220302380Y-63223809D01*
X220302380Y-63128571D01*
X220302380Y-62652380D02*
X220254761Y-62747619D01*
X220207142Y-62795238D01*
X220111904Y-62842857D01*
X219826190Y-62842857D01*
X219730952Y-62795238D01*
X219683333Y-62747619D01*
X219635714Y-62652380D01*
X219635714Y-62509523D01*
X219683333Y-62414285D01*
X219730952Y-62366666D01*
X219826190Y-62319047D01*
X220111904Y-62319047D01*
X220207142Y-62366666D01*
X220254761Y-62414285D01*
X220302380Y-62509523D01*
X220302380Y-62652380D01*
X220302380Y-61890476D02*
X219635714Y-61890476D01*
X219826190Y-61890476D02*
X219730952Y-61842857D01*
X219683333Y-61795238D01*
X219635714Y-61700000D01*
X219635714Y-61604761D01*
%TO.C,J5*%
X174191666Y-75807380D02*
X174191666Y-76521666D01*
X174144047Y-76664523D01*
X174048809Y-76759761D01*
X173905952Y-76807380D01*
X173810714Y-76807380D01*
X175144047Y-75807380D02*
X174667857Y-75807380D01*
X174620238Y-76283571D01*
X174667857Y-76235952D01*
X174763095Y-76188333D01*
X175001190Y-76188333D01*
X175096428Y-76235952D01*
X175144047Y-76283571D01*
X175191666Y-76378809D01*
X175191666Y-76616904D01*
X175144047Y-76712142D01*
X175096428Y-76759761D01*
X175001190Y-76807380D01*
X174763095Y-76807380D01*
X174667857Y-76759761D01*
X174620238Y-76712142D01*
X171528571Y-89735714D02*
X171528571Y-90069047D01*
X172052380Y-90069047D02*
X171052380Y-90069047D01*
X171052380Y-89592857D01*
X171385714Y-88783333D02*
X172052380Y-88783333D01*
X171385714Y-89211904D02*
X171909523Y-89211904D01*
X172004761Y-89164285D01*
X172052380Y-89069047D01*
X172052380Y-88926190D01*
X172004761Y-88830952D01*
X171957142Y-88783333D01*
X171385714Y-88450000D02*
X171385714Y-88069047D01*
X171052380Y-88307142D02*
X171909523Y-88307142D01*
X172004761Y-88259523D01*
X172052380Y-88164285D01*
X172052380Y-88069047D01*
X171385714Y-87307142D02*
X172052380Y-87307142D01*
X171385714Y-87735714D02*
X171909523Y-87735714D01*
X172004761Y-87688095D01*
X172052380Y-87592857D01*
X172052380Y-87450000D01*
X172004761Y-87354761D01*
X171957142Y-87307142D01*
X172052380Y-86830952D02*
X171385714Y-86830952D01*
X171576190Y-86830952D02*
X171480952Y-86783333D01*
X171433333Y-86735714D01*
X171385714Y-86640476D01*
X171385714Y-86545238D01*
X172004761Y-85830952D02*
X172052380Y-85926190D01*
X172052380Y-86116666D01*
X172004761Y-86211904D01*
X171909523Y-86259523D01*
X171528571Y-86259523D01*
X171433333Y-86211904D01*
X171385714Y-86116666D01*
X171385714Y-85926190D01*
X171433333Y-85830952D01*
X171528571Y-85783333D01*
X171623809Y-85783333D01*
X171719047Y-86259523D01*
%TO.C,Y1*%
X185563809Y-98301190D02*
X185563809Y-98777380D01*
X185230476Y-97777380D02*
X185563809Y-98301190D01*
X185897142Y-97777380D01*
X186754285Y-98777380D02*
X186182857Y-98777380D01*
X186468571Y-98777380D02*
X186468571Y-97777380D01*
X186373333Y-97920238D01*
X186278095Y-98015476D01*
X186182857Y-98063095D01*
D12*
%TO.C,C2*%
X176188000Y-36730000D02*
X176188000Y-37435000D01*
X176188000Y-39470000D02*
X180428000Y-39470000D01*
X176188000Y-36730000D02*
X180428000Y-36730000D01*
X180428000Y-38765000D02*
X180428000Y-39470000D01*
X176188000Y-38765000D02*
X176188000Y-39470000D01*
X180428000Y-36730000D02*
X180428000Y-37435000D01*
%TO.C,J4*%
X185689000Y-38105000D02*
X183089000Y-38105000D01*
X190829000Y-40705000D02*
X190829000Y-35505000D01*
X183089000Y-35505000D02*
X190829000Y-35505000D01*
X183089000Y-40705000D02*
X183089000Y-39375000D01*
X185689000Y-40705000D02*
X190829000Y-40705000D01*
X185689000Y-40705000D02*
X185689000Y-38105000D01*
X184419000Y-40705000D02*
X183089000Y-40705000D01*
X183089000Y-38105000D02*
X183089000Y-35505000D01*
%TO.C,C3*%
X201080000Y-86514000D02*
X201080000Y-87219000D01*
X201080000Y-89254000D02*
X205320000Y-89254000D01*
X201080000Y-86514000D02*
X205320000Y-86514000D01*
X205320000Y-88549000D02*
X205320000Y-89254000D01*
X201080000Y-88549000D02*
X201080000Y-89254000D01*
X205320000Y-86514000D02*
X205320000Y-87219000D01*
%TO.C,C12*%
X216686000Y-22053000D02*
X217994000Y-22053000D01*
X213947000Y-21173000D02*
X214606000Y-21173000D01*
X214327000Y-20893000D02*
X214606000Y-20893000D01*
X214263000Y-20933000D02*
X214606000Y-20933000D01*
X216686000Y-22654000D02*
X218182000Y-22654000D01*
X213399000Y-21853000D02*
X214606000Y-21853000D01*
X213066000Y-23134000D02*
X218226000Y-23134000D01*
X216686000Y-21973000D02*
X217956000Y-21973000D01*
X216686000Y-21293000D02*
X217472000Y-21293000D01*
X216686000Y-21693000D02*
X217795000Y-21693000D01*
X216686000Y-22413000D02*
X218126000Y-22413000D01*
X216686000Y-21653000D02*
X217768000Y-21653000D01*
X214203000Y-20973000D02*
X214606000Y-20973000D01*
X213067000Y-23054000D02*
X218225000Y-23054000D01*
X213611000Y-21533000D02*
X214606000Y-21533000D01*
X215128000Y-20573000D02*
X216164000Y-20573000D01*
X213191000Y-22333000D02*
X214606000Y-22333000D01*
X213422000Y-21813000D02*
X214606000Y-21813000D01*
X216686000Y-22013000D02*
X217975000Y-22013000D01*
X216686000Y-21213000D02*
X217389000Y-21213000D01*
X216686000Y-21493000D02*
X217650000Y-21493000D01*
X216686000Y-20893000D02*
X216965000Y-20893000D01*
X216686000Y-20853000D02*
X216897000Y-20853000D01*
X216686000Y-21333000D02*
X217510000Y-21333000D01*
X216686000Y-22574000D02*
X218166000Y-22574000D01*
X213110000Y-22654000D02*
X214606000Y-22654000D01*
X213166000Y-22413000D02*
X214606000Y-22413000D01*
X213232000Y-22213000D02*
X214606000Y-22213000D01*
X216686000Y-22454000D02*
X218137000Y-22454000D01*
X214969000Y-20613000D02*
X216323000Y-20613000D01*
X213471000Y-21733000D02*
X214606000Y-21733000D01*
X216686000Y-22373000D02*
X218114000Y-22373000D01*
X213861000Y-21253000D02*
X214606000Y-21253000D01*
X216686000Y-20973000D02*
X217089000Y-20973000D01*
X213709000Y-21413000D02*
X214606000Y-21413000D01*
X213497000Y-21693000D02*
X214606000Y-21693000D01*
X213317000Y-22013000D02*
X214606000Y-22013000D01*
X216686000Y-22774000D02*
X218202000Y-22774000D01*
X216686000Y-20933000D02*
X217029000Y-20933000D01*
X213135000Y-22534000D02*
X214606000Y-22534000D01*
X214548000Y-20773000D02*
X216744000Y-20773000D01*
X213903000Y-21213000D02*
X214606000Y-21213000D01*
X216686000Y-22894000D02*
X218215000Y-22894000D01*
X216686000Y-22614000D02*
X218174000Y-22614000D01*
X213103000Y-22694000D02*
X214606000Y-22694000D01*
X213070000Y-22974000D02*
X218222000Y-22974000D01*
X213551000Y-21613000D02*
X214606000Y-21613000D01*
X216686000Y-21893000D02*
X217914000Y-21893000D01*
X213264000Y-22133000D02*
X214606000Y-22133000D01*
X216686000Y-22494000D02*
X218147000Y-22494000D01*
X213118000Y-22614000D02*
X214606000Y-22614000D01*
X213066000Y-23094000D02*
X218226000Y-23094000D01*
X213281000Y-22093000D02*
X214606000Y-22093000D01*
X216686000Y-21133000D02*
X217299000Y-21133000D01*
X213145000Y-22494000D02*
X214606000Y-22494000D01*
X213085000Y-22814000D02*
X214606000Y-22814000D01*
X213446000Y-21773000D02*
X214606000Y-21773000D01*
X216686000Y-21533000D02*
X217681000Y-21533000D01*
X213820000Y-21293000D02*
X214606000Y-21293000D01*
X216686000Y-22734000D02*
X218196000Y-22734000D01*
X213204000Y-22293000D02*
X214606000Y-22293000D01*
X213126000Y-22574000D02*
X214606000Y-22574000D01*
X213096000Y-22734000D02*
X214606000Y-22734000D01*
X216686000Y-21733000D02*
X217821000Y-21733000D01*
X216686000Y-22173000D02*
X218044000Y-22173000D01*
X213068000Y-23014000D02*
X218224000Y-23014000D01*
X213073000Y-22934000D02*
X218219000Y-22934000D01*
X213077000Y-22894000D02*
X214606000Y-22894000D01*
X216686000Y-22534000D02*
X218157000Y-22534000D01*
X216686000Y-21253000D02*
X217431000Y-21253000D01*
X213356000Y-21933000D02*
X214606000Y-21933000D01*
X213581000Y-21573000D02*
X214606000Y-21573000D01*
X216686000Y-22093000D02*
X218011000Y-22093000D01*
X213993000Y-21133000D02*
X214606000Y-21133000D01*
X213090000Y-22774000D02*
X214606000Y-22774000D01*
X216686000Y-21413000D02*
X217583000Y-21413000D01*
X216686000Y-22293000D02*
X218088000Y-22293000D01*
X216686000Y-21573000D02*
X217711000Y-21573000D01*
X216686000Y-21853000D02*
X217893000Y-21853000D01*
X216686000Y-21373000D02*
X217547000Y-21373000D01*
X216686000Y-22333000D02*
X218101000Y-22333000D01*
X216686000Y-21813000D02*
X217870000Y-21813000D01*
X213248000Y-22173000D02*
X214606000Y-22173000D01*
X214171000Y-25938775D02*
X214171000Y-25438775D01*
X216686000Y-21093000D02*
X217251000Y-21093000D01*
X214841000Y-20653000D02*
X216451000Y-20653000D01*
X214395000Y-20853000D02*
X214606000Y-20853000D01*
X216686000Y-22253000D02*
X218074000Y-22253000D01*
X216686000Y-22854000D02*
X218211000Y-22854000D01*
X215362000Y-20533000D02*
X215930000Y-20533000D01*
X213218000Y-22253000D02*
X214606000Y-22253000D01*
X214635000Y-20733000D02*
X216657000Y-20733000D01*
X216686000Y-22133000D02*
X218028000Y-22133000D01*
X213642000Y-21493000D02*
X214606000Y-21493000D01*
X214146000Y-21013000D02*
X214606000Y-21013000D01*
X214468000Y-20813000D02*
X216824000Y-20813000D01*
X213524000Y-21653000D02*
X214606000Y-21653000D01*
X216686000Y-21773000D02*
X217846000Y-21773000D01*
X216686000Y-22213000D02*
X218060000Y-22213000D01*
X213921000Y-25688775D02*
X214421000Y-25688775D01*
X213298000Y-22053000D02*
X214606000Y-22053000D01*
X213675000Y-21453000D02*
X214606000Y-21453000D01*
X213155000Y-22454000D02*
X214606000Y-22454000D01*
X216686000Y-21613000D02*
X217741000Y-21613000D01*
X216686000Y-22814000D02*
X218207000Y-22814000D01*
X216686000Y-21933000D02*
X217936000Y-21933000D01*
X213378000Y-21893000D02*
X214606000Y-21893000D01*
X214092000Y-21053000D02*
X214606000Y-21053000D01*
X213336000Y-21973000D02*
X214606000Y-21973000D01*
X216686000Y-21053000D02*
X217200000Y-21053000D01*
X214731000Y-20693000D02*
X216561000Y-20693000D01*
X216686000Y-21453000D02*
X217617000Y-21453000D01*
X213081000Y-22854000D02*
X214606000Y-22854000D01*
X216686000Y-21013000D02*
X217146000Y-21013000D01*
X213745000Y-21373000D02*
X214606000Y-21373000D01*
X216686000Y-22694000D02*
X218189000Y-22694000D01*
X214041000Y-21093000D02*
X214606000Y-21093000D01*
X213178000Y-22373000D02*
X214606000Y-22373000D01*
X216686000Y-21173000D02*
X217345000Y-21173000D01*
X213782000Y-21333000D02*
X214606000Y-21333000D01*
X218266000Y-23134000D02*
G75*
G03*
X218266000Y-23134000I-2620000J0D01*
G01*
%TO.C,C11*%
X214860000Y-118409000D02*
X213552000Y-118409000D01*
X217599000Y-119289000D02*
X216940000Y-119289000D01*
X217219000Y-119569000D02*
X216940000Y-119569000D01*
X217283000Y-119529000D02*
X216940000Y-119529000D01*
X214860000Y-117808000D02*
X213364000Y-117808000D01*
X218147000Y-118609000D02*
X216940000Y-118609000D01*
X218480000Y-117328000D02*
X213320000Y-117328000D01*
X214860000Y-118489000D02*
X213590000Y-118489000D01*
X214860000Y-119169000D02*
X214074000Y-119169000D01*
X214860000Y-118769000D02*
X213751000Y-118769000D01*
X214860000Y-118049000D02*
X213420000Y-118049000D01*
X214860000Y-118809000D02*
X213778000Y-118809000D01*
X217343000Y-119489000D02*
X216940000Y-119489000D01*
X218479000Y-117408000D02*
X213321000Y-117408000D01*
X217935000Y-118929000D02*
X216940000Y-118929000D01*
X216418000Y-119889000D02*
X215382000Y-119889000D01*
X218355000Y-118129000D02*
X216940000Y-118129000D01*
X218124000Y-118649000D02*
X216940000Y-118649000D01*
X214860000Y-118449000D02*
X213571000Y-118449000D01*
X214860000Y-119249000D02*
X214157000Y-119249000D01*
X214860000Y-118969000D02*
X213896000Y-118969000D01*
X214860000Y-119569000D02*
X214581000Y-119569000D01*
X214860000Y-119609000D02*
X214649000Y-119609000D01*
X214860000Y-119129000D02*
X214036000Y-119129000D01*
X214860000Y-117888000D02*
X213380000Y-117888000D01*
X218436000Y-117808000D02*
X216940000Y-117808000D01*
X218380000Y-118049000D02*
X216940000Y-118049000D01*
X218314000Y-118249000D02*
X216940000Y-118249000D01*
X214860000Y-118008000D02*
X213409000Y-118008000D01*
X216577000Y-119849000D02*
X215223000Y-119849000D01*
X218075000Y-118729000D02*
X216940000Y-118729000D01*
X214860000Y-118089000D02*
X213432000Y-118089000D01*
X217685000Y-119209000D02*
X216940000Y-119209000D01*
X214860000Y-119489000D02*
X214457000Y-119489000D01*
X217837000Y-119049000D02*
X216940000Y-119049000D01*
X218049000Y-118769000D02*
X216940000Y-118769000D01*
X218229000Y-118449000D02*
X216940000Y-118449000D01*
X214860000Y-117688000D02*
X213344000Y-117688000D01*
X214860000Y-119529000D02*
X214517000Y-119529000D01*
X218411000Y-117928000D02*
X216940000Y-117928000D01*
X216998000Y-119689000D02*
X214802000Y-119689000D01*
X217643000Y-119249000D02*
X216940000Y-119249000D01*
X214860000Y-117568000D02*
X213331000Y-117568000D01*
X214860000Y-117848000D02*
X213372000Y-117848000D01*
X218443000Y-117768000D02*
X216940000Y-117768000D01*
X218476000Y-117488000D02*
X213324000Y-117488000D01*
X217995000Y-118849000D02*
X216940000Y-118849000D01*
X214860000Y-118569000D02*
X213632000Y-118569000D01*
X218282000Y-118329000D02*
X216940000Y-118329000D01*
X214860000Y-117968000D02*
X213399000Y-117968000D01*
X218428000Y-117848000D02*
X216940000Y-117848000D01*
X218480000Y-117368000D02*
X213320000Y-117368000D01*
X218265000Y-118369000D02*
X216940000Y-118369000D01*
X214860000Y-119329000D02*
X214247000Y-119329000D01*
X218401000Y-117968000D02*
X216940000Y-117968000D01*
X218461000Y-117648000D02*
X216940000Y-117648000D01*
X218100000Y-118689000D02*
X216940000Y-118689000D01*
X214860000Y-118929000D02*
X213865000Y-118929000D01*
X217726000Y-119169000D02*
X216940000Y-119169000D01*
X214860000Y-117728000D02*
X213350000Y-117728000D01*
X218342000Y-118169000D02*
X216940000Y-118169000D01*
X218420000Y-117888000D02*
X216940000Y-117888000D01*
X218450000Y-117728000D02*
X216940000Y-117728000D01*
X214860000Y-118729000D02*
X213725000Y-118729000D01*
X214860000Y-118289000D02*
X213502000Y-118289000D01*
X218478000Y-117448000D02*
X213322000Y-117448000D01*
X218473000Y-117528000D02*
X213327000Y-117528000D01*
X218469000Y-117568000D02*
X216940000Y-117568000D01*
X214860000Y-117928000D02*
X213389000Y-117928000D01*
X214860000Y-119209000D02*
X214115000Y-119209000D01*
X218190000Y-118529000D02*
X216940000Y-118529000D01*
X217965000Y-118889000D02*
X216940000Y-118889000D01*
X214860000Y-118369000D02*
X213535000Y-118369000D01*
X217553000Y-119329000D02*
X216940000Y-119329000D01*
X218456000Y-117688000D02*
X216940000Y-117688000D01*
X214860000Y-119049000D02*
X213963000Y-119049000D01*
X214860000Y-118169000D02*
X213458000Y-118169000D01*
X214860000Y-118889000D02*
X213835000Y-118889000D01*
X214860000Y-118609000D02*
X213653000Y-118609000D01*
X214860000Y-119089000D02*
X213999000Y-119089000D01*
X214860000Y-118129000D02*
X213445000Y-118129000D01*
X214860000Y-118649000D02*
X213676000Y-118649000D01*
X218298000Y-118289000D02*
X216940000Y-118289000D01*
X217375000Y-114523225D02*
X217375000Y-115023225D01*
X214860000Y-119369000D02*
X214295000Y-119369000D01*
X216705000Y-119809000D02*
X215095000Y-119809000D01*
X217151000Y-119609000D02*
X216940000Y-119609000D01*
X214860000Y-118209000D02*
X213472000Y-118209000D01*
X214860000Y-117608000D02*
X213335000Y-117608000D01*
X216184000Y-119929000D02*
X215616000Y-119929000D01*
X218328000Y-118209000D02*
X216940000Y-118209000D01*
X216911000Y-119729000D02*
X214889000Y-119729000D01*
X214860000Y-118329000D02*
X213518000Y-118329000D01*
X217904000Y-118969000D02*
X216940000Y-118969000D01*
X217400000Y-119449000D02*
X216940000Y-119449000D01*
X217078000Y-119649000D02*
X214722000Y-119649000D01*
X218022000Y-118809000D02*
X216940000Y-118809000D01*
X214860000Y-118689000D02*
X213700000Y-118689000D01*
X214860000Y-118249000D02*
X213486000Y-118249000D01*
X217625000Y-114773225D02*
X217125000Y-114773225D01*
X218248000Y-118409000D02*
X216940000Y-118409000D01*
X217871000Y-119009000D02*
X216940000Y-119009000D01*
X218391000Y-118008000D02*
X216940000Y-118008000D01*
X214860000Y-118849000D02*
X213805000Y-118849000D01*
X214860000Y-117648000D02*
X213339000Y-117648000D01*
X214860000Y-118529000D02*
X213610000Y-118529000D01*
X218168000Y-118569000D02*
X216940000Y-118569000D01*
X217454000Y-119409000D02*
X216940000Y-119409000D01*
X218210000Y-118489000D02*
X216940000Y-118489000D01*
X214860000Y-119409000D02*
X214346000Y-119409000D01*
X216815000Y-119769000D02*
X214985000Y-119769000D01*
X214860000Y-119009000D02*
X213929000Y-119009000D01*
X218465000Y-117608000D02*
X216940000Y-117608000D01*
X214860000Y-119449000D02*
X214400000Y-119449000D01*
X217801000Y-119089000D02*
X216940000Y-119089000D01*
X214860000Y-117768000D02*
X213357000Y-117768000D01*
X217505000Y-119369000D02*
X216940000Y-119369000D01*
X218368000Y-118089000D02*
X216940000Y-118089000D01*
X214860000Y-119289000D02*
X214201000Y-119289000D01*
X217764000Y-119129000D02*
X216940000Y-119129000D01*
X218520000Y-117328000D02*
G75*
G03*
X218520000Y-117328000I-2620000J0D01*
G01*
%TO.C,C5*%
X202096000Y-21747000D02*
X202096000Y-22452000D01*
X206336000Y-19712000D02*
X206336000Y-20417000D01*
X206336000Y-21747000D02*
X206336000Y-22452000D01*
X202096000Y-22452000D02*
X206336000Y-22452000D01*
X202096000Y-19712000D02*
X202096000Y-20417000D01*
X202096000Y-19712000D02*
X206336000Y-19712000D01*
%TO.C,U2*%
X201120000Y-91185000D02*
X201120000Y-116705000D01*
X208620000Y-91125000D02*
X198120000Y-91125000D01*
X208620000Y-116765000D02*
X208620000Y-91125000D01*
X198120000Y-91125000D02*
X198120000Y-116765000D01*
X205620000Y-116705000D02*
X205620000Y-91185000D01*
X198120000Y-116765000D02*
X208620000Y-116765000D01*
X202370000Y-91185000D02*
X201120000Y-91185000D01*
X205620000Y-91185000D02*
X204370000Y-91185000D01*
X201120000Y-116705000D02*
X205620000Y-116705000D01*
X202370000Y-91185000D02*
G75*
G03*
X204370000Y-91185000I1000000J0D01*
G01*
%TO.C,J3*%
X191680000Y-23670000D02*
X191680000Y-31350000D01*
X189020000Y-21070000D02*
X190350000Y-21070000D01*
X189020000Y-31350000D02*
X191680000Y-31350000D01*
X189020000Y-23670000D02*
X189020000Y-31350000D01*
X189020000Y-22400000D02*
X189020000Y-21070000D01*
X189020000Y-23670000D02*
X191680000Y-23670000D01*
%TO.C,C9*%
X186070000Y-21580000D02*
X186070000Y-25820000D01*
X186070000Y-25820000D02*
X185365000Y-25820000D01*
X183330000Y-21580000D02*
X183330000Y-25820000D01*
X184035000Y-25820000D02*
X183330000Y-25820000D01*
X186070000Y-21580000D02*
X185365000Y-21580000D01*
X184035000Y-21580000D02*
X183330000Y-21580000D01*
%TO.C,C4*%
X201334000Y-52732000D02*
X205574000Y-52732000D01*
X201334000Y-55472000D02*
X205574000Y-55472000D01*
X205574000Y-52732000D02*
X205574000Y-53437000D01*
X201334000Y-52732000D02*
X201334000Y-53437000D01*
X201334000Y-54767000D02*
X201334000Y-55472000D01*
X205574000Y-54767000D02*
X205574000Y-55472000D01*
%TO.C,U1*%
X193455000Y-44745000D02*
X187995000Y-44745000D01*
X185995000Y-44745000D02*
X180535000Y-44745000D01*
X193455000Y-95665000D02*
X193455000Y-44745000D01*
X180535000Y-95665000D02*
X193455000Y-95665000D01*
X180535000Y-44745000D02*
X180535000Y-95665000D01*
X185995000Y-44745000D02*
G75*
G03*
X187995000Y-44745000I1000000J0D01*
G01*
%TO.C,C8*%
X193080000Y-21630000D02*
X193080000Y-25870000D01*
X195820000Y-21630000D02*
X195820000Y-25870000D01*
X195820000Y-21630000D02*
X195115000Y-21630000D01*
X195820000Y-25870000D02*
X195115000Y-25870000D01*
X193785000Y-21630000D02*
X193080000Y-21630000D01*
X193785000Y-25870000D02*
X193080000Y-25870000D01*
%TO.C,U4*%
X205610000Y-49390000D02*
X205610000Y-23870000D01*
X205610000Y-23870000D02*
X204360000Y-23870000D01*
X208610000Y-49450000D02*
X208610000Y-23810000D01*
X201110000Y-23870000D02*
X201110000Y-49390000D01*
X198110000Y-49450000D02*
X208610000Y-49450000D01*
X208610000Y-23810000D02*
X198110000Y-23810000D01*
X201110000Y-49390000D02*
X205610000Y-49390000D01*
X198110000Y-23810000D02*
X198110000Y-49450000D01*
X202360000Y-23870000D02*
X201110000Y-23870000D01*
X202360000Y-23870000D02*
G75*
G03*
X204360000Y-23870000I1000000J0D01*
G01*
%TO.C,C1*%
X187370000Y-109512000D02*
X187370000Y-105272000D01*
X189405000Y-105272000D02*
X190110000Y-105272000D01*
X190110000Y-109512000D02*
X190110000Y-105272000D01*
X187370000Y-105272000D02*
X188075000Y-105272000D01*
X189405000Y-109512000D02*
X190110000Y-109512000D01*
X187370000Y-109512000D02*
X188075000Y-109512000D01*
%TO.C,J1*%
X179370000Y-23670000D02*
X179370000Y-31350000D01*
X179370000Y-21070000D02*
X180700000Y-21070000D01*
X182030000Y-23670000D02*
X182030000Y-31350000D01*
X179370000Y-23670000D02*
X182030000Y-23670000D01*
X179370000Y-31350000D02*
X182030000Y-31350000D01*
X179370000Y-22400000D02*
X179370000Y-21070000D01*
%TO.C,U3*%
X201110000Y-57527500D02*
X201110000Y-83047500D01*
X198110000Y-57467500D02*
X198110000Y-83107500D01*
X205610000Y-83047500D02*
X205610000Y-57527500D01*
X201110000Y-83047500D02*
X205610000Y-83047500D01*
X208610000Y-57467500D02*
X198110000Y-57467500D01*
X202360000Y-57527500D02*
X201110000Y-57527500D01*
X198110000Y-83107500D02*
X208610000Y-83107500D01*
X208610000Y-83107500D02*
X208610000Y-57467500D01*
X205610000Y-57527500D02*
X204360000Y-57527500D01*
X202360000Y-57527500D02*
G75*
G03*
X204360000Y-57527500I1000000J0D01*
G01*
%TO.C,C6*%
X184325000Y-105272000D02*
X185030000Y-105272000D01*
X184325000Y-109512000D02*
X185030000Y-109512000D01*
X185030000Y-109512000D02*
X185030000Y-105272000D01*
X182290000Y-105272000D02*
X182995000Y-105272000D01*
X182290000Y-109512000D02*
X182995000Y-109512000D01*
X182290000Y-109512000D02*
X182290000Y-105272000D01*
%TO.C,C7*%
X175635000Y-68080000D02*
X174930000Y-68080000D01*
X174930000Y-68080000D02*
X174930000Y-72320000D01*
X177670000Y-72320000D02*
X176965000Y-72320000D01*
X177670000Y-68080000D02*
X176965000Y-68080000D01*
X175635000Y-72320000D02*
X174930000Y-72320000D01*
X177670000Y-68080000D02*
X177670000Y-72320000D01*
%TO.C,J2*%
X215932000Y-32136000D02*
X215932000Y-29536000D01*
X213332000Y-30866000D02*
X213332000Y-29536000D01*
X213332000Y-32136000D02*
X215932000Y-32136000D01*
X218532000Y-29536000D02*
X218532000Y-110936000D01*
X215932000Y-29536000D02*
X218532000Y-29536000D01*
X213332000Y-110936000D02*
X218532000Y-110936000D01*
X213332000Y-32136000D02*
X213332000Y-110936000D01*
X213332000Y-29536000D02*
X214662000Y-29536000D01*
%TO.C,J5*%
X173195000Y-98235000D02*
X175855000Y-98235000D01*
X175855000Y-80395000D02*
X175855000Y-98235000D01*
X174525000Y-77795000D02*
X175855000Y-77795000D01*
X173195000Y-80395000D02*
X173195000Y-98235000D01*
X173195000Y-80395000D02*
X175855000Y-80395000D01*
X175855000Y-77795000D02*
X175855000Y-79125000D01*
%TO.C,Y1*%
X182840000Y-99325000D02*
X189240000Y-99325000D01*
X182840000Y-104375000D02*
X189240000Y-104375000D01*
X182840000Y-99325000D02*
G75*
G03*
X182840000Y-104375000I0J-2525000D01*
G01*
X189240000Y-104375000D02*
G75*
G03*
X189240000Y-99325000I0J2525000D01*
G01*
%TD*%
M02*
