%TF.GenerationSoftware,KiCad,Pcbnew,(6.0.2)*%
%TF.CreationDate,2022-09-22T22:37:32-07:00*%
%TF.ProjectId,Rosco I2C,526f7363-6f20-4493-9243-2e6b69636164,rev?*%
%TF.SameCoordinates,Original*%
%TF.FileFunction,Soldermask,Top*%
%TF.FilePolarity,Negative*%
%FSLAX46Y46*%
G04 Gerber Fmt 4.6, Leading zero omitted, Abs format (unit mm)*
G04 Created by KiCad (PCBNEW (6.0.2)) date 2022-09-22 22:37:32*
%MOMM*%
%LPD*%
G01*
G04 APERTURE LIST*
%ADD10C,1.600000*%
%ADD11R,1.700000X1.700000*%
%ADD12O,1.700000X1.700000*%
%ADD13R,1.600000X1.600000*%
%ADD14R,2.400000X1.600000*%
%ADD15O,2.400000X1.600000*%
%ADD16O,1.600000X1.600000*%
%ADD17C,1.500000*%
G04 APERTURE END LIST*
D10*
%TO.C,C2*%
X177058000Y-38100000D03*
X179558000Y-38100000D03*
%TD*%
D11*
%TO.C,J4*%
X184419000Y-39375000D03*
D12*
X184419000Y-36835000D03*
X186959000Y-39375000D03*
X186959000Y-36835000D03*
X189499000Y-39375000D03*
X189499000Y-36835000D03*
%TD*%
D10*
%TO.C,C3*%
X201950000Y-87884000D03*
X204450000Y-87884000D03*
%TD*%
D13*
%TO.C,C12*%
X215646000Y-24384000D03*
D10*
X215646000Y-21884000D03*
%TD*%
D13*
%TO.C,C11*%
X215900000Y-116078000D03*
D10*
X215900000Y-118578000D03*
%TD*%
%TO.C,C5*%
X202966000Y-21082000D03*
X205466000Y-21082000D03*
%TD*%
D14*
%TO.C,U2*%
X199560000Y-92515000D03*
D15*
X199560000Y-95055000D03*
X199560000Y-97595000D03*
X199560000Y-100135000D03*
X199560000Y-102675000D03*
X199560000Y-105215000D03*
X199560000Y-107755000D03*
X199560000Y-110295000D03*
X199560000Y-112835000D03*
X199560000Y-115375000D03*
X207180000Y-115375000D03*
X207180000Y-112835000D03*
X207180000Y-110295000D03*
X207180000Y-107755000D03*
X207180000Y-105215000D03*
X207180000Y-102675000D03*
X207180000Y-100135000D03*
X207180000Y-97595000D03*
X207180000Y-95055000D03*
X207180000Y-92515000D03*
%TD*%
D11*
%TO.C,J3*%
X190350000Y-22400000D03*
D12*
X190350000Y-24940000D03*
X190350000Y-27480000D03*
X190350000Y-30020000D03*
%TD*%
D10*
%TO.C,C9*%
X184700000Y-22450000D03*
X184700000Y-24950000D03*
%TD*%
%TO.C,C4*%
X202204000Y-54102000D03*
X204704000Y-54102000D03*
%TD*%
D13*
%TO.C,U1*%
X179375000Y-46075000D03*
D16*
X179375000Y-48615000D03*
X179375000Y-51155000D03*
X179375000Y-53695000D03*
X179375000Y-56235000D03*
X179375000Y-58775000D03*
X179375000Y-61315000D03*
X179375000Y-63855000D03*
X179375000Y-66395000D03*
X179375000Y-68935000D03*
X179375000Y-71475000D03*
X179375000Y-74015000D03*
X179375000Y-76555000D03*
X179375000Y-79095000D03*
X179375000Y-81635000D03*
X179375000Y-84175000D03*
X179375000Y-86715000D03*
X179375000Y-89255000D03*
X179375000Y-91795000D03*
X179375000Y-94335000D03*
X194615000Y-94335000D03*
X194615000Y-91795000D03*
X194615000Y-89255000D03*
X194615000Y-86715000D03*
X194615000Y-84175000D03*
X194615000Y-81635000D03*
X194615000Y-79095000D03*
X194615000Y-76555000D03*
X194615000Y-74015000D03*
X194615000Y-71475000D03*
X194615000Y-68935000D03*
X194615000Y-66395000D03*
X194615000Y-63855000D03*
X194615000Y-61315000D03*
X194615000Y-58775000D03*
X194615000Y-56235000D03*
X194615000Y-53695000D03*
X194615000Y-51155000D03*
X194615000Y-48615000D03*
X194615000Y-46075000D03*
%TD*%
D10*
%TO.C,C8*%
X194450000Y-22500000D03*
X194450000Y-25000000D03*
%TD*%
D14*
%TO.C,U4*%
X199550000Y-25200000D03*
D15*
X199550000Y-27740000D03*
X199550000Y-30280000D03*
X199550000Y-32820000D03*
X199550000Y-35360000D03*
X199550000Y-37900000D03*
X199550000Y-40440000D03*
X199550000Y-42980000D03*
X199550000Y-45520000D03*
X199550000Y-48060000D03*
X207170000Y-48060000D03*
X207170000Y-45520000D03*
X207170000Y-42980000D03*
X207170000Y-40440000D03*
X207170000Y-37900000D03*
X207170000Y-35360000D03*
X207170000Y-32820000D03*
X207170000Y-30280000D03*
X207170000Y-27740000D03*
X207170000Y-25200000D03*
%TD*%
D10*
%TO.C,C1*%
X188740000Y-108642000D03*
X188740000Y-106142000D03*
%TD*%
D11*
%TO.C,J1*%
X180700000Y-22400000D03*
D12*
X180700000Y-24940000D03*
X180700000Y-27480000D03*
X180700000Y-30020000D03*
%TD*%
D14*
%TO.C,U3*%
X199550000Y-58857500D03*
D15*
X199550000Y-61397500D03*
X199550000Y-63937500D03*
X199550000Y-66477500D03*
X199550000Y-69017500D03*
X199550000Y-71557500D03*
X199550000Y-74097500D03*
X199550000Y-76637500D03*
X199550000Y-79177500D03*
X199550000Y-81717500D03*
X207170000Y-81717500D03*
X207170000Y-79177500D03*
X207170000Y-76637500D03*
X207170000Y-74097500D03*
X207170000Y-71557500D03*
X207170000Y-69017500D03*
X207170000Y-66477500D03*
X207170000Y-63937500D03*
X207170000Y-61397500D03*
X207170000Y-58857500D03*
%TD*%
D10*
%TO.C,C6*%
X183660000Y-108642000D03*
X183660000Y-106142000D03*
%TD*%
%TO.C,C7*%
X176300000Y-68950000D03*
X176300000Y-71450000D03*
%TD*%
D11*
%TO.C,J2*%
X214662000Y-30866000D03*
D12*
X217202000Y-30866000D03*
X214662000Y-33406000D03*
X217202000Y-33406000D03*
X214662000Y-35946000D03*
X217202000Y-35946000D03*
X214662000Y-38486000D03*
X217202000Y-38486000D03*
X214662000Y-41026000D03*
X217202000Y-41026000D03*
X214662000Y-43566000D03*
X217202000Y-43566000D03*
X214662000Y-46106000D03*
X217202000Y-46106000D03*
X214662000Y-48646000D03*
X217202000Y-48646000D03*
X214662000Y-51186000D03*
X217202000Y-51186000D03*
X214662000Y-53726000D03*
X217202000Y-53726000D03*
X214662000Y-56266000D03*
X217202000Y-56266000D03*
X214662000Y-58806000D03*
X217202000Y-58806000D03*
X214662000Y-61346000D03*
X217202000Y-61346000D03*
X214662000Y-63886000D03*
X217202000Y-63886000D03*
X214662000Y-66426000D03*
X217202000Y-66426000D03*
X214662000Y-68966000D03*
X217202000Y-68966000D03*
X214662000Y-71506000D03*
X217202000Y-71506000D03*
X214662000Y-74046000D03*
X217202000Y-74046000D03*
X214662000Y-76586000D03*
X217202000Y-76586000D03*
X214662000Y-79126000D03*
X217202000Y-79126000D03*
X214662000Y-81666000D03*
X217202000Y-81666000D03*
X214662000Y-84206000D03*
X217202000Y-84206000D03*
X214662000Y-86746000D03*
X217202000Y-86746000D03*
X214662000Y-89286000D03*
X217202000Y-89286000D03*
X214662000Y-91826000D03*
X217202000Y-91826000D03*
X214662000Y-94366000D03*
X217202000Y-94366000D03*
X214662000Y-96906000D03*
X217202000Y-96906000D03*
X214662000Y-99446000D03*
X217202000Y-99446000D03*
X214662000Y-101986000D03*
X217202000Y-101986000D03*
X214662000Y-104526000D03*
X217202000Y-104526000D03*
X214662000Y-107066000D03*
X217202000Y-107066000D03*
X214662000Y-109606000D03*
X217202000Y-109606000D03*
%TD*%
D11*
%TO.C,J5*%
X174525000Y-79125000D03*
D12*
X174525000Y-81665000D03*
X174525000Y-84205000D03*
X174525000Y-86745000D03*
X174525000Y-89285000D03*
X174525000Y-91825000D03*
X174525000Y-94365000D03*
X174525000Y-96905000D03*
%TD*%
D17*
%TO.C,Y1*%
X183600000Y-101850000D03*
X188480000Y-101850000D03*
%TD*%
M02*
