M48
; DRILL file {KiCad (6.0.2)} date Thu Sep 22 22:37:29 2022
; FORMAT={-:-/ absolute / inch / decimal}
; #@! TF.CreationDate,2022-09-22T22:37:29-07:00
; #@! TF.GenerationSoftware,Kicad,Pcbnew,(6.0.2)
; #@! TF.FileFunction,Plated,1,2,PTH
FMAT,2
INCH
; #@! TA.AperFunction,Plated,PTH,ViaDrill
T1C0.0157
; #@! TA.AperFunction,Plated,PTH,ComponentDrill
T2C0.0315
; #@! TA.AperFunction,Plated,PTH,ComponentDrill
T3C0.0394
%
G90
G05
T1
X8.3595Y-3.552
T2
X6.9409Y-2.7146
X6.9409Y-2.813
X6.9708Y-1.5
X7.062Y-1.814
X7.062Y-1.914
X7.062Y-2.014
X7.062Y-2.114
X7.062Y-2.214
X7.062Y-2.314
X7.062Y-2.414
X7.062Y-2.514
X7.062Y-2.614
X7.062Y-2.714
X7.062Y-2.814
X7.062Y-2.914
X7.062Y-3.014
X7.062Y-3.114
X7.062Y-3.214
X7.062Y-3.314
X7.062Y-3.414
X7.062Y-3.514
X7.062Y-3.614
X7.062Y-3.714
X7.0692Y-1.5
X7.2283Y-4.0098
X7.2307Y-4.1788
X7.2307Y-4.2772
X7.2717Y-0.8839
X7.2717Y-0.9823
X7.4205Y-4.0098
X7.4307Y-4.1788
X7.4307Y-4.2772
X7.6555Y-0.8858
X7.6555Y-0.9843
X7.662Y-1.814
X7.662Y-1.914
X7.662Y-2.014
X7.662Y-2.114
X7.662Y-2.214
X7.662Y-2.314
X7.662Y-2.414
X7.662Y-2.514
X7.662Y-2.614
X7.662Y-2.714
X7.662Y-2.814
X7.662Y-2.914
X7.662Y-3.014
X7.662Y-3.114
X7.662Y-3.214
X7.662Y-3.314
X7.662Y-3.414
X7.662Y-3.514
X7.662Y-3.614
X7.662Y-3.714
X7.8563Y-0.9921
X7.8563Y-1.0921
X7.8563Y-1.1921
X7.8563Y-1.2921
X7.8563Y-1.3921
X7.8563Y-1.4921
X7.8563Y-1.5921
X7.8563Y-1.6921
X7.8563Y-1.7921
X7.8563Y-1.8921
X7.8563Y-2.3172
X7.8563Y-2.4172
X7.8563Y-2.5172
X7.8563Y-2.6172
X7.8563Y-2.7172
X7.8563Y-2.8172
X7.8563Y-2.9172
X7.8563Y-3.0172
X7.8563Y-3.1172
X7.8563Y-3.2172
X7.8567Y-3.6423
X7.8567Y-3.7423
X7.8567Y-3.8423
X7.8567Y-3.9423
X7.8567Y-4.0423
X7.8567Y-4.1423
X7.8567Y-4.2423
X7.8567Y-4.3423
X7.8567Y-4.4423
X7.8567Y-4.5423
X7.9508Y-3.46
X7.9608Y-2.13
X7.9908Y-0.83
X8.0492Y-3.46
X8.0592Y-2.13
X8.0892Y-0.83
X8.1563Y-0.9921
X8.1563Y-1.0921
X8.1563Y-1.1921
X8.1563Y-1.2921
X8.1563Y-1.3921
X8.1563Y-1.4921
X8.1563Y-1.5921
X8.1563Y-1.6921
X8.1563Y-1.7921
X8.1563Y-1.8921
X8.1563Y-2.3172
X8.1563Y-2.4172
X8.1563Y-2.5172
X8.1563Y-2.6172
X8.1563Y-2.7172
X8.1563Y-2.8172
X8.1563Y-2.9172
X8.1563Y-3.0172
X8.1563Y-3.1172
X8.1563Y-3.2172
X8.1567Y-3.6423
X8.1567Y-3.7423
X8.1567Y-3.8423
X8.1567Y-3.9423
X8.1567Y-4.0423
X8.1567Y-4.1423
X8.1567Y-4.2423
X8.1567Y-4.3423
X8.1567Y-4.4423
X8.1567Y-4.5423
X8.49Y-0.8616
X8.49Y-0.96
X8.5Y-4.57
X8.5Y-4.6684
T3
X6.8711Y-3.1152
X6.8711Y-3.2152
X6.8711Y-3.3152
X6.8711Y-3.4152
X6.8711Y-3.5152
X6.8711Y-3.6152
X6.8711Y-3.7152
X6.8711Y-3.8152
X7.1142Y-0.8819
X7.1142Y-0.9819
X7.1142Y-1.0819
X7.1142Y-1.1819
X7.2606Y-1.4502
X7.2606Y-1.5502
X7.3606Y-1.4502
X7.3606Y-1.5502
X7.4606Y-1.4502
X7.4606Y-1.5502
X7.4941Y-0.8819
X7.4941Y-0.9819
X7.4941Y-1.0819
X7.4941Y-1.1819
X8.4513Y-1.2152
X8.4513Y-1.3152
X8.4513Y-1.4152
X8.4513Y-1.5152
X8.4513Y-1.6152
X8.4513Y-1.7152
X8.4513Y-1.8152
X8.4513Y-1.9152
X8.4513Y-2.0152
X8.4513Y-2.1152
X8.4513Y-2.2152
X8.4513Y-2.3152
X8.4513Y-2.4152
X8.4513Y-2.5152
X8.4513Y-2.6152
X8.4513Y-2.7152
X8.4513Y-2.8152
X8.4513Y-2.9152
X8.4513Y-3.0152
X8.4513Y-3.1152
X8.4513Y-3.2152
X8.4513Y-3.3152
X8.4513Y-3.4152
X8.4513Y-3.5152
X8.4513Y-3.6152
X8.4513Y-3.7152
X8.4513Y-3.8152
X8.4513Y-3.9152
X8.4513Y-4.0152
X8.4513Y-4.1152
X8.4513Y-4.2152
X8.4513Y-4.3152
X8.5513Y-1.2152
X8.5513Y-1.3152
X8.5513Y-1.4152
X8.5513Y-1.5152
X8.5513Y-1.6152
X8.5513Y-1.7152
X8.5513Y-1.8152
X8.5513Y-1.9152
X8.5513Y-2.0152
X8.5513Y-2.1152
X8.5513Y-2.2152
X8.5513Y-2.3152
X8.5513Y-2.4152
X8.5513Y-2.5152
X8.5513Y-2.6152
X8.5513Y-2.7152
X8.5513Y-2.8152
X8.5513Y-2.9152
X8.5513Y-3.0152
X8.5513Y-3.1152
X8.5513Y-3.2152
X8.5513Y-3.3152
X8.5513Y-3.4152
X8.5513Y-3.5152
X8.5513Y-3.6152
X8.5513Y-3.7152
X8.5513Y-3.8152
X8.5513Y-3.9152
X8.5513Y-4.0152
X8.5513Y-4.1152
X8.5513Y-4.2152
X8.5513Y-4.3152
T0
M30
